<svg width="65" height="66" viewBox="0 0 65 66" fill="none" xmlns="http://www.w3.org/2000/svg">
<rect y="0.5" width="65" height="65" rx="20" fill="#66C57A"/>
<path d="M46.794 25.4673C47.2359 24.9369 47.1643 24.1487 46.6339 23.7067C46.1036 23.2648 45.3154 23.3364 44.8734 23.8668L35.889 34.6481C34.0842 36.8138 32.8147 38.3326 31.7135 39.3269C30.638 40.2981 29.8958 40.6068 29.167 40.6068C28.4383 40.6068 27.696 40.2981 26.6205 39.3269C25.5194 38.3326 24.2498 36.8138 22.4451 34.6481L20.1273 31.8668C19.6853 31.3364 18.8971 31.2648 18.3668 31.7067C17.8364 32.1487 17.7648 32.9369 18.2067 33.4673L20.5889 36.3258C22.3143 38.3964 23.6961 40.0546 24.9451 41.1824C26.2352 42.3474 27.5539 43.1068 29.167 43.1068C30.7801 43.1068 32.0989 42.3474 33.389 41.1824C34.6379 40.0546 36.0197 38.3964 37.7451 36.3259L46.794 25.4673Z" fill="white"/>
</svg>
