<svg width="287" height="80" viewBox="0 0 287 80" fill="none" xmlns="http://www.w3.org/2000/svg">
<path d="M9.75355 67.6485C10.0579 73.1211 13.0506 78.1631 14.5089 80C17.1719 76.2629 22.6881 69.0546 23.4489 70.1187C24.2098 71.1829 26.5557 71.3222 27.6336 71.2589L30.2966 72.7791C31.0574 73.2858 33.0356 74.2233 34.8617 73.9192C36.6877 73.6152 37.9051 73.0324 38.2855 72.7791C45.7418 73.0831 46.7183 72.1457 46.2744 71.6389C47.9483 73.4632 49.508 73.9192 50.0787 73.9192H53.8829C57.0785 73.9192 58.5114 72.399 58.8284 71.6389H60.7306C62.7088 71.943 63.0765 69.9921 63.0131 68.9786V66.1283C63.1398 65.8749 63.5455 65.1781 64.1542 64.418C64.7628 63.6579 64.4078 62.9612 64.1542 62.7078C55.975 52.8266 57.4967 53.9667 55.7848 51.3064C54.4153 49.1781 53.1852 45.479 52.7414 43.8955C53.312 42.882 54.4153 40.6271 54.2631 39.715C54.1109 38.8028 55.7214 38.3214 56.5457 38.1948L58.0674 37.8147C61.4151 36.5986 63.1397 31.9873 63.5835 29.8337C62.569 29.0736 59.8934 27.5534 57.3065 27.5534C54.7196 27.5534 51.6635 28.6936 50.4589 29.2637L46.4644 25.0831C51.9806 21.6627 52.7417 19.1924 53.6928 15.2019C54.4536 12.0095 53.6294 8.67775 53.1221 7.41092C51.0298 17.2922 46.2745 18.8123 42.4703 20.1425C35.8128 13.1116 28.775 18.4323 27.4435 19.7625C26.5305 19.0024 26.6826 17.1655 26.8728 16.342C27.4435 13.6817 28.6228 7.94299 28.775 6.27078C28.9652 4.18052 28.9652 4.56057 28.9652 3.42043C28.9652 2.50831 28.0774 0.760095 27.6335 0C27.9379 2.4323 27.1263 4.94062 26.6825 5.89073C23.4869 10.4513 21.4199 16.4054 20.7859 18.8123C20.4816 20.0285 21.6735 21.726 22.3076 22.4228C22.4344 22.3595 22.1934 22.5748 20.2152 23.943C17.7805 19.8385 14.5089 18.1789 13.1774 17.8622C12.1629 17.5455 9.22096 17.1022 5.56888 17.8622C3.89501 19.5345 7.4076 26.4133 9.37312 29.6437L3.47654 30.4038L3.85697 30.9739C7.05253 33.1022 8.61227 39.3349 8.9927 42.1853L9.37312 49.4062C9.49994 53.2067 9.75355 62.1758 9.75355 67.6485Z" fill="#9BBEC8"/>
<path d="M54.4532 49.0261C67.9964 61.1876 75.3767 58.0839 77.6593 55.867C75.3768 57.8305 67.3498 58.6413 53.5024 46.1758L54.4532 49.0261Z" fill="#427D9D"/>
<path d="M21.5465 16.342C10.3115 5.84225 -8.443 10.2511 4.23731 26.2233C7.37963 30.1814 21.2978 41.7361 28.3944 46.7458C27.5308 48.0249 27.0942 49.6958 28.5407 52.1324C30.6101 55.6185 36.1483 56.8392 37.8641 56.9595C39.5798 57.0798 41.3843 57.0908 42.626 55.5594C46.1057 51.2676 38.9019 44.1909 35.396 43.0065C33.3389 42.3115 31.8643 43.0015 30.6769 44.0855C23.5411 39.1642 9.95096 29.3328 7.28056 25.6532C-3.75195 10.4513 11.2141 9.79046 20.9759 18.2423L21.5465 16.342Z" fill="#427D9D"/>
<path d="M97.2232 40.6326C97.137 39.5566 96.7331 38.7173 96.0115 38.1147C95.3006 37.5122 94.2182 37.2109 92.7641 37.2109C91.8379 37.2109 91.0785 37.3239 90.4861 37.5498C89.9045 37.765 89.4737 38.0609 89.1937 38.4375C88.9136 38.8141 88.7682 39.2445 88.7575 39.7287C88.7359 40.1268 88.8059 40.4873 88.9675 40.8101C89.1398 41.1221 89.4091 41.4073 89.7753 41.6655C90.1415 41.913 90.61 42.139 91.1809 42.3434C91.7517 42.5478 92.4302 42.7308 93.2165 42.8922L95.9307 43.4732C97.7617 43.8606 99.3289 44.3717 100.632 45.0065C101.935 45.6413 103.002 46.3892 103.831 47.25C104.66 48.1 105.269 49.0576 105.657 50.1229C106.055 51.1881 106.26 52.3502 106.271 53.6091C106.26 55.7826 105.716 57.6226 104.639 59.129C103.562 60.6354 102.022 61.7813 100.018 62.5668C98.0256 63.3522 95.6291 63.745 92.8288 63.745C89.953 63.745 87.4434 63.32 85.3001 62.4699C83.1675 61.6199 81.5088 60.3126 80.324 58.5479C79.15 56.7725 78.5576 54.5022 78.5469 51.7369H87.0772C87.1311 52.7483 87.3842 53.5983 87.8366 54.287C88.2889 54.9756 88.9244 55.4975 89.743 55.8525C90.5723 56.2076 91.5578 56.3852 92.6995 56.3852C93.6581 56.3852 94.4605 56.2668 95.1068 56.0301C95.753 55.7934 96.2431 55.4652 96.577 55.0455C96.9108 54.6259 97.0832 54.1471 97.0939 53.6091C97.0832 53.1034 96.9162 52.6622 96.5931 52.2856C96.2808 51.8983 95.7638 51.5539 95.0421 51.2527C94.3205 50.9406 93.3458 50.6501 92.1179 50.3811L88.8221 49.6709C85.8925 49.0361 83.5822 47.9762 81.8912 46.4914C80.2109 44.9957 79.3762 42.9567 79.387 40.3743C79.3762 38.2761 79.9363 36.4416 81.0672 34.8706C82.2089 33.2889 83.7868 32.0569 85.8009 31.1746C87.8258 30.2922 90.1469 29.8511 92.7641 29.8511C95.4353 29.8511 97.7456 30.2976 99.6951 31.1907C101.645 32.0838 103.147 33.3427 104.203 34.9674C105.269 36.5814 105.807 38.4698 105.818 40.6326H97.2232Z" fill="#164863"/>
<path d="M120.945 30.303V63.3576H111.962V30.303H120.945Z" fill="#164863"/>
<path d="M127.477 30.303H138.657L146.347 49.0253H146.735L154.425 30.303H165.605V63.3576H156.816V44.2479H156.558L149.191 63.0994H143.891L136.524 44.1188H136.266V63.3576H127.477V30.303Z" fill="#164863"/>
<path d="M204.19 46.8303C204.19 50.5102 203.474 53.6145 202.042 56.1431C200.609 58.6609 198.676 60.5708 196.242 61.8728C193.807 63.1639 191.093 63.8095 188.099 63.8095C185.083 63.8095 182.358 63.1586 179.924 61.8566C177.501 60.5439 175.573 58.6286 174.14 56.1108C172.718 53.5822 172.008 50.4887 172.008 46.8303C172.008 43.1504 172.718 40.0515 174.14 37.5337C175.573 35.0051 177.501 33.0952 179.924 31.804C182.358 30.5021 185.083 29.8511 188.099 29.8511C191.093 29.8511 193.807 30.5021 196.242 31.804C198.676 33.0952 200.609 35.0051 202.042 37.5337C203.474 40.0515 204.19 43.1504 204.19 46.8303ZM194.949 46.8303C194.949 44.8505 194.685 43.1827 194.157 41.8269C193.64 40.4604 192.87 39.4274 191.847 38.7281C190.835 38.0179 189.585 37.6628 188.099 37.6628C186.613 37.6628 185.358 38.0179 184.335 38.7281C183.322 39.4274 182.552 40.4604 182.024 41.8269C181.507 43.1827 181.249 44.8505 181.249 46.8303C181.249 48.8101 181.507 50.4833 182.024 51.8498C182.552 53.2056 183.322 54.2386 184.335 54.9487C185.358 55.6481 186.613 55.9978 188.099 55.9978C189.585 55.9978 190.835 55.6481 191.847 54.9487C192.87 54.2386 193.64 53.2056 194.157 51.8498C194.685 50.4833 194.949 48.8101 194.949 46.8303Z" fill="#164863"/>
<path d="M210.621 63.3576V30.303H224.903C227.359 30.303 229.508 30.7495 231.349 31.6426C233.191 32.5357 234.624 33.8215 235.647 35.5001C236.67 37.1786 237.182 39.1907 237.182 41.5364C237.182 43.9036 236.654 45.8996 235.598 47.5243C234.554 49.1491 233.083 50.3757 231.188 51.2042C229.303 52.0328 227.1 52.447 224.58 52.447H216.05V45.4746H222.771C223.826 45.4746 224.725 45.3454 225.469 45.0872C226.223 44.8182 226.799 44.3932 227.197 43.8121C227.607 43.2311 227.811 42.4725 227.811 41.5364C227.811 40.5895 227.607 39.8202 227.197 39.2284C226.799 38.6258 226.223 38.1847 225.469 37.9049C224.725 37.6144 223.826 37.4691 222.771 37.4691H219.604V63.3576H210.621ZM230.008 48.1861L238.28 63.3576H228.522L220.444 48.1861H230.008Z" fill="#164863"/>
<path d="M252.268 30.303V63.3576H243.285V30.303H252.268Z" fill="#164863"/>
<path d="M276.636 40.6326C276.55 39.5566 276.146 38.7173 275.424 38.1147C274.714 37.5122 273.631 37.2109 272.177 37.2109C271.251 37.2109 270.492 37.3239 269.899 37.5498C269.318 37.765 268.887 38.0609 268.607 38.4375C268.327 38.8141 268.181 39.2445 268.17 39.7287C268.149 40.1268 268.219 40.4873 268.38 40.8101C268.553 41.1221 268.822 41.4073 269.188 41.6655C269.554 41.913 270.023 42.139 270.594 42.3434C271.165 42.5478 271.843 42.7308 272.629 42.8922L275.344 43.4732C277.175 43.8606 278.742 44.3717 280.045 45.0065C281.348 45.6413 282.415 46.3892 283.244 47.25C284.073 48.1 284.682 49.0576 285.07 50.1229C285.468 51.1881 285.673 52.3502 285.684 53.6091C285.673 55.7826 285.129 57.6226 284.052 59.129C282.975 60.6354 281.435 61.7813 279.431 62.5668C277.439 63.3522 275.042 63.745 272.242 63.745C269.366 63.745 266.856 63.32 264.713 62.4699C262.58 61.6199 260.922 60.3126 259.737 58.5479C258.563 56.7725 257.971 54.5022 257.96 51.7369H266.49C266.544 52.7483 266.797 53.5983 267.25 54.287C267.702 54.9756 268.337 55.4975 269.156 55.8525C269.985 56.2076 270.971 56.3852 272.113 56.3852C273.071 56.3852 273.874 56.2668 274.52 56.0301C275.166 55.7934 275.656 55.4652 275.99 55.0455C276.324 54.6259 276.496 54.1471 276.507 53.6091C276.496 53.1034 276.329 52.6622 276.006 52.2856C275.694 51.8983 275.177 51.5539 274.455 51.2527C273.733 50.9406 272.759 50.6501 271.531 50.3811L268.235 49.6709C265.305 49.0361 262.995 47.9762 261.304 46.4914C259.624 44.9957 258.789 42.9567 258.8 40.3743C258.789 38.2761 259.349 36.4416 260.48 34.8706C261.622 33.2889 263.2 32.0569 265.214 31.1746C267.239 30.2922 269.56 29.8511 272.177 29.8511C274.848 29.8511 277.159 30.2976 279.108 31.1907C281.058 32.0838 282.56 33.3427 283.616 34.9674C284.682 36.5814 285.22 38.4698 285.231 40.6326H276.636Z" fill="#164863"/>
</svg>
