<svg width="287" height="80" viewBox="0 0 287 80" fill="none" xmlns="http://www.w3.org/2000/svg">
<path d="M9.75355 67.6485C10.0579 73.1211 13.0506 78.1631 14.5089 80C17.1719 76.2629 22.6881 69.0546 23.4489 70.1187C24.2098 71.1829 26.5557 71.3222 27.6336 71.2589L30.2966 72.7791C31.0574 73.2858 33.0356 74.2233 34.8617 73.9192C36.6877 73.6152 37.9051 73.0324 38.2855 72.7791C45.7418 73.0831 46.7183 72.1457 46.2744 71.6389C47.9483 73.4632 49.508 73.9192 50.0787 73.9192H53.8829C57.0785 73.9192 58.5114 72.399 58.8284 71.6389H60.7306C62.7088 71.943 63.0765 69.9921 63.0131 68.9786V66.1282C63.1398 65.8749 63.5455 65.1781 64.1542 64.418C64.7628 63.6579 64.4078 62.9612 64.1542 62.7078C55.975 52.8266 57.4967 53.9667 55.7848 51.3064C54.4153 49.1781 53.1852 45.479 52.7414 43.8955C53.312 42.882 54.4153 40.6271 54.2631 39.715C54.1109 38.8028 55.7214 38.3214 56.5457 38.1948L58.0674 37.8147C61.4151 36.5986 63.1397 31.9873 63.5835 29.8337C62.569 29.0736 59.8934 27.5534 57.3065 27.5534C54.7196 27.5534 51.6635 28.6936 50.4589 29.2636L46.4644 25.0831C51.9806 21.6627 52.7417 19.1924 53.6928 15.2019C54.4536 12.0095 53.6294 8.67775 53.1221 7.41092C51.0298 17.2922 46.2745 18.8123 42.4703 20.1425C35.8128 13.1116 28.775 18.4323 27.4435 19.7625C26.5305 19.0024 26.6826 17.1655 26.8728 16.342C27.4435 13.6817 28.6228 7.94299 28.775 6.27078C28.9652 4.18052 28.9652 4.56057 28.9652 3.42043C28.9652 2.50831 28.0774 0.760095 27.6335 0C27.9379 2.4323 27.1263 4.94062 26.6825 5.89073C23.4869 10.4513 21.4199 16.4054 20.7859 18.8123C20.4816 20.0285 21.6735 21.726 22.3076 22.4228C22.4344 22.3595 22.1934 22.5748 20.2152 23.943C17.7805 19.8385 14.5089 18.1789 13.1774 17.8622C12.1629 17.5455 9.22095 17.1022 5.56888 17.8622C3.89501 19.5345 7.4076 26.4133 9.37313 29.6437L3.47654 30.4038L3.85697 30.9739C7.05254 33.1021 8.61227 39.3349 8.9927 42.1853L9.37313 49.4062C9.49994 53.2067 9.75355 62.1758 9.75355 67.6485Z" fill="#9BBEC8"/>
<path d="M54.4532 49.0261C67.9964 61.1876 75.3767 58.0839 77.6593 55.867C75.3768 57.8305 67.3498 58.6413 53.5024 46.1758L54.4532 49.0261Z" fill="#427D9D"/>
<path d="M21.5465 16.342C10.3115 5.84225 -8.443 10.2511 4.23731 26.2233C7.37963 30.1814 21.2978 41.7361 28.3944 46.7458C27.5308 48.0249 27.0942 49.6958 28.5407 52.1324C30.6101 55.6185 36.1483 56.8392 37.8641 56.9595C39.5798 57.0798 41.3843 57.0908 42.626 55.5594C46.1057 51.2676 38.9019 44.1909 35.396 43.0065C33.3389 42.3115 31.8643 43.0015 30.6769 44.0855C23.5411 39.1642 9.95096 29.3328 7.28056 25.6532C-3.75195 10.4513 11.2141 9.79046 20.9759 18.2423L21.5465 16.342Z" fill="#427D9D"/>
<path d="M96.3531 31.1815C96.2669 30.1055 95.863 29.2662 95.1414 28.6637C94.4305 28.0611 93.3481 27.7598 91.894 27.7598C90.9677 27.7598 90.2084 27.8728 89.616 28.0988C89.0344 28.314 88.6036 28.6099 88.3236 28.9865C88.0435 29.3631 87.8981 29.7935 87.8873 30.2777C87.8658 30.6758 87.9358 31.0363 88.0974 31.3591C88.2697 31.6711 88.539 31.9562 88.9052 32.2145C89.2714 32.462 89.7399 32.6879 90.3107 32.8924C90.8816 33.0968 91.5601 33.2797 92.3464 33.4411L95.0606 34.0222C96.8916 34.4095 98.4587 34.9206 99.762 35.5554C101.065 36.1903 102.132 36.9381 102.961 37.7989C103.79 38.6489 104.399 39.6066 104.786 40.6718C105.185 41.737 105.39 42.8991 105.4 44.158C105.39 46.3316 104.846 48.1715 103.769 49.6779C102.692 51.1843 101.151 52.3302 99.1481 53.1157C97.1555 53.9012 94.759 54.2939 91.9586 54.2939C89.0829 54.2939 86.5733 53.8689 84.43 53.0189C82.2974 52.1688 80.6387 50.8615 79.4539 49.0969C78.2799 47.3215 77.6875 45.0511 77.6768 42.2858H86.2071C86.261 43.2972 86.5141 44.1473 86.9664 44.8359C87.4188 45.5246 88.0543 46.0464 88.8729 46.4015C89.7022 46.7566 90.6877 46.9341 91.8294 46.9341C92.788 46.9341 93.5904 46.8158 94.2366 46.579C94.8829 46.3423 95.3729 46.0141 95.7068 45.5945C96.0407 45.1749 96.2131 44.696 96.2238 44.158C96.2131 43.6523 96.0461 43.2112 95.723 42.8346C95.4106 42.4472 94.8937 42.1029 94.172 41.8016C93.4504 41.4896 92.4756 41.1991 91.2478 40.9301L87.952 40.2199C85.0223 39.5851 82.712 38.5252 81.021 37.0403C79.3408 35.5447 78.5061 33.5057 78.5169 30.9233C78.5061 28.8251 79.0662 26.9905 80.1971 25.4196C81.3388 23.8378 82.9167 22.6058 84.9308 21.7235C86.9557 20.8412 89.2768 20.4 91.894 20.4C94.5651 20.4 96.8755 20.8466 98.8249 21.7396C100.774 22.6327 102.277 23.8916 103.332 25.5164C104.399 27.1304 104.937 29.0188 104.948 31.1815H96.3531Z" fill="#164863"/>
<path d="M120.075 20.8519V53.9066H111.092V20.8519H120.075Z" fill="#164863"/>
<path d="M126.607 20.8519H137.787L145.477 39.5743H145.865L153.555 20.8519H164.735V53.9066H155.946V34.7969H155.688L148.32 53.6483H143.021L135.654 34.6677H135.396V53.9066H126.607V20.8519Z" fill="#164863"/>
<path d="M203.32 37.3793C203.32 41.0592 202.604 44.1634 201.171 46.692C199.739 49.2099 197.806 51.1197 195.371 52.4217C192.937 53.7129 190.223 54.3585 187.229 54.3585C184.213 54.3585 181.488 53.7075 179.054 52.4056C176.631 51.0928 174.703 49.1776 173.27 46.6597C171.848 44.1311 171.138 41.0377 171.138 37.3793C171.138 33.6994 171.848 30.6005 173.27 28.0826C174.703 25.5541 176.631 23.6442 179.054 22.353C181.488 21.051 184.213 20.4 187.229 20.4C190.223 20.4 192.937 21.051 195.371 22.353C197.806 23.6442 199.739 25.5541 201.171 28.0826C202.604 30.6005 203.32 33.6994 203.32 37.3793ZM194.079 37.3793C194.079 35.3994 193.815 33.7316 193.287 32.3759C192.77 31.0094 192 29.9764 190.977 29.277C189.965 28.5668 188.715 28.2118 187.229 28.2118C185.743 28.2118 184.488 28.5668 183.465 29.277C182.452 29.9764 181.682 31.0094 181.154 32.3759C180.637 33.7316 180.379 35.3994 180.379 37.3793C180.379 39.3591 180.637 41.0323 181.154 42.3988C181.682 43.7545 182.452 44.7875 183.465 45.4977C184.488 46.1971 185.743 46.5468 187.229 46.5468C188.715 46.5468 189.965 46.1971 190.977 45.4977C192 44.7875 192.77 43.7545 193.287 42.3988C193.815 41.0323 194.079 39.3591 194.079 37.3793Z" fill="#164863"/>
<path d="M209.751 53.9066V20.8519H224.033C226.489 20.8519 228.637 21.2985 230.479 22.1916C232.321 23.0846 233.754 24.3705 234.777 26.049C235.8 27.7276 236.312 29.7397 236.312 32.0854C236.312 34.4525 235.784 36.4485 234.728 38.0733C233.684 39.698 232.213 40.9247 230.318 41.7532C228.433 42.5817 226.23 42.996 223.71 42.996H215.18V36.0235H221.9C222.956 36.0235 223.855 35.8944 224.598 35.6361C225.352 35.3671 225.929 34.9421 226.327 34.3611C226.736 33.7801 226.941 33.0215 226.941 32.0854C226.941 31.1385 226.736 30.3691 226.327 29.7773C225.929 29.1748 225.352 28.7336 224.598 28.4539C223.855 28.1633 222.956 28.0181 221.9 28.0181H218.734V53.9066H209.751ZM229.138 38.735L237.41 53.9066H227.652L219.574 38.735H229.138Z" fill="#164863"/>
<path d="M251.398 20.8519V53.9066H242.415V20.8519H251.398Z" fill="#164863"/>
<path d="M275.766 31.1815C275.68 30.1055 275.276 29.2662 274.554 28.6637C273.844 28.0611 272.761 27.7598 271.307 27.7598C270.381 27.7598 269.621 27.8728 269.029 28.0988C268.447 28.314 268.017 28.6099 267.737 28.9865C267.457 29.3631 267.311 29.7935 267.3 30.2777C267.279 30.6758 267.349 31.0363 267.51 31.3591C267.683 31.6711 267.952 31.9562 268.318 32.2145C268.684 32.462 269.153 32.6879 269.724 32.8924C270.295 33.0968 270.973 33.2797 271.759 33.4411L274.474 34.0222C276.305 34.4095 277.872 34.9206 279.175 35.5554C280.478 36.1903 281.545 36.9381 282.374 37.7989C283.203 38.6489 283.812 39.6066 284.199 40.6718C284.598 41.737 284.803 42.8991 284.813 44.158C284.803 46.3316 284.259 48.1715 283.182 49.6779C282.105 51.1843 280.564 52.3302 278.561 53.1157C276.568 53.9012 274.172 54.2939 271.372 54.2939C268.496 54.2939 265.986 53.8689 263.843 53.0189C261.71 52.1688 260.052 50.8615 258.867 49.0969C257.693 47.3215 257.101 45.0511 257.09 42.2858H265.62C265.674 43.2972 265.927 44.1473 266.379 44.8359C266.832 45.5246 267.467 46.0464 268.286 46.4015C269.115 46.7566 270.101 46.9341 271.242 46.9341C272.201 46.9341 273.003 46.8158 273.65 46.579C274.296 46.3423 274.786 46.0141 275.12 45.5945C275.454 45.1749 275.626 44.696 275.637 44.158C275.626 43.6523 275.459 43.2112 275.136 42.8346C274.824 42.4472 274.307 42.1029 273.585 41.8016C272.863 41.4896 271.889 41.1991 270.661 40.9301L267.365 40.2199C264.435 39.5851 262.125 38.5252 260.434 37.0403C258.754 35.5447 257.919 33.5057 257.93 30.9233C257.919 28.8251 258.479 26.9905 259.61 25.4196C260.752 23.8378 262.33 22.6058 264.344 21.7235C266.369 20.8412 268.69 20.4 271.307 20.4C273.978 20.4 276.288 20.8466 278.238 21.7396C280.187 22.6327 281.69 23.8916 282.745 25.5164C283.812 27.1304 284.35 29.0188 284.361 31.1815H275.766Z" fill="#164863"/>
<path d="M81.9838 62.3114C81.9611 62.0614 81.8598 61.867 81.6801 61.7284C81.5027 61.5875 81.249 61.517 80.9191 61.517C80.7007 61.517 80.5187 61.5454 80.3731 61.6023C80.2275 61.6591 80.1183 61.7375 80.0455 61.8375C79.9727 61.9352 79.9352 62.0477 79.9329 62.175C79.9284 62.2795 79.9489 62.3716 79.9944 62.4511C80.0421 62.5307 80.1104 62.6011 80.1991 62.6625C80.2901 62.7216 80.3993 62.7739 80.5267 62.8193C80.6541 62.8648 80.7974 62.9045 80.9567 62.9386L81.5573 63.075C81.9031 63.15 82.2079 63.25 82.4718 63.375C82.738 63.5 82.9609 63.6489 83.1407 63.8216C83.3227 63.9943 83.4603 64.1932 83.5536 64.4182C83.6468 64.6432 83.6946 64.8954 83.6969 65.175C83.6946 65.6159 83.5831 65.9943 83.3625 66.3102C83.1418 66.6261 82.8244 66.8682 82.4104 67.0364C81.9986 67.2045 81.5015 67.2886 80.9191 67.2886C80.3345 67.2886 79.8249 67.2011 79.3903 67.0261C78.9558 66.8511 78.618 66.5852 78.3768 66.2284C78.1357 65.8716 78.0117 65.4204 78.0049 64.875H79.6224C79.636 65.1 79.6963 65.2875 79.8033 65.4375C79.9102 65.5875 80.0569 65.7011 80.2435 65.7784C80.4323 65.8557 80.6507 65.8943 80.8987 65.8943C81.1262 65.8943 81.3195 65.8636 81.4788 65.8023C81.6403 65.7409 81.7643 65.6557 81.8507 65.5466C81.9372 65.4375 81.9816 65.3125 81.9838 65.1716C81.9816 65.0398 81.9406 64.9273 81.861 64.8341C81.7814 64.7386 81.6585 64.6568 81.4924 64.5886C81.3286 64.5182 81.1193 64.4534 80.8645 64.3943L80.1343 64.2239C79.5291 64.0852 79.0525 63.8614 78.7044 63.5523C78.3564 63.2409 78.1835 62.8204 78.1857 62.2909C78.1835 61.8591 78.2995 61.4807 78.5338 61.1557C78.7681 60.8307 79.0923 60.5773 79.5064 60.3954C79.9204 60.2136 80.3925 60.1227 80.9225 60.1227C81.464 60.1227 81.9338 60.2148 82.3319 60.3989C82.7323 60.5807 83.0428 60.8364 83.2635 61.1659C83.4842 61.4954 83.5968 61.8773 83.6013 62.3114H81.9838Z" fill="black"/>
<path d="M84.8383 67.2V61.9636H86.507V67.2H84.8383ZM85.6744 61.3534C85.44 61.3534 85.2387 61.2761 85.0703 61.1216C84.902 60.9648 84.8178 60.7761 84.8178 60.5557C84.8178 60.3375 84.902 60.1511 85.0703 59.9966C85.2387 59.8398 85.44 59.7614 85.6744 59.7614C85.911 59.7614 86.1123 59.8398 86.2784 59.9966C86.4467 60.1511 86.5309 60.3375 86.5309 60.5557C86.5309 60.7761 86.4467 60.9648 86.2784 61.1216C86.1123 61.2761 85.911 61.3534 85.6744 61.3534Z" fill="black"/>
<path d="M92.4335 63.5625L90.9013 63.6034C90.8854 63.4943 90.8422 63.3977 90.7717 63.3136C90.7011 63.2273 90.609 63.1602 90.4953 63.1125C90.3838 63.0625 90.2541 63.0375 90.1062 63.0375C89.9129 63.0375 89.7479 63.0761 89.6114 63.1534C89.4772 63.2307 89.4112 63.3352 89.4135 63.467C89.4112 63.5693 89.4522 63.6579 89.5364 63.7329C89.6228 63.8079 89.7764 63.8682 89.997 63.9136L91.0071 64.1045C91.5304 64.2045 91.9194 64.3704 92.1742 64.6023C92.4313 64.8341 92.5609 65.1409 92.5632 65.5227C92.5609 65.8818 92.454 66.1943 92.2424 66.4602C92.0332 66.7261 91.7465 66.9329 91.3825 67.0807C91.0185 67.2261 90.6022 67.2989 90.1335 67.2989C89.3851 67.2989 88.7947 67.1454 88.3625 66.8386C87.9325 66.5295 87.6868 66.1159 87.6254 65.5977L89.2736 65.5568C89.31 65.7477 89.4044 65.8932 89.5568 65.9932C89.7093 66.0932 89.9038 66.1432 90.1404 66.1432C90.3542 66.1432 90.5282 66.1034 90.6625 66.0239C90.7967 65.9443 90.8649 65.8386 90.8672 65.7068C90.8649 65.5886 90.8126 65.4943 90.7102 65.4239C90.6079 65.3511 90.4475 65.2943 90.2291 65.2534L89.3145 65.0795C88.789 64.9841 88.3977 64.8079 88.1407 64.5511C87.8836 64.292 87.7562 63.9625 87.7585 63.5625C87.7562 63.2125 87.8495 62.9136 88.0383 62.6659C88.2271 62.4159 88.4956 62.225 88.8436 62.0932C89.1917 61.9614 89.6023 61.8954 90.0755 61.8954C90.7853 61.8954 91.345 62.0443 91.7545 62.342C92.164 62.6375 92.3903 63.0443 92.4335 63.5625Z" fill="black"/>
<path d="M96.6317 61.9636V63.1909H93.325V61.9636H96.6317ZM94.0177 60.7091H95.6864V65.5534C95.6864 65.6557 95.7023 65.7386 95.7342 65.8023C95.7683 65.8636 95.8172 65.9079 95.8809 65.9352C95.9446 65.9602 96.0208 65.9727 96.1096 65.9727C96.1733 65.9727 96.2404 65.967 96.3109 65.9557C96.3837 65.942 96.4383 65.9307 96.4747 65.9216L96.7272 67.125C96.6476 67.1477 96.535 67.1761 96.3894 67.2102C96.2461 67.2443 96.0743 67.2659 95.8741 67.275C95.4828 67.2932 95.1472 67.2477 94.8674 67.1386C94.5899 67.0273 94.3772 66.8545 94.2293 66.6204C94.0837 66.3864 94.0132 66.092 94.0177 65.7375V60.7091Z" fill="black"/>
<path d="M100.165 67.2989C99.617 67.2989 99.1438 67.1909 98.7456 66.975C98.3498 66.7568 98.0449 66.4466 97.8311 66.0443C97.6195 65.6398 97.5137 65.1591 97.5137 64.6023C97.5137 64.0614 97.6207 63.5886 97.8345 63.1841C98.0484 62.7773 98.3498 62.4614 98.7388 62.2364C99.1278 62.0091 99.5862 61.8954 100.114 61.8954C100.487 61.8954 100.828 61.9534 101.138 62.0693C101.447 62.1852 101.714 62.3568 101.94 62.5841C102.165 62.8114 102.34 63.092 102.465 63.4261C102.59 63.7579 102.653 64.1386 102.653 64.5682V64.9841H98.0973V64.0159H101.1C101.098 63.8386 101.056 63.6807 100.974 63.542C100.892 63.4034 100.779 63.2954 100.636 63.2182C100.495 63.1386 100.332 63.0989 100.148 63.0989C99.9616 63.0989 99.7944 63.1409 99.6465 63.225C99.4987 63.3068 99.3815 63.4193 99.295 63.5625C99.2086 63.7034 99.1631 63.8636 99.1585 64.0432V65.0284C99.1585 65.242 99.2006 65.4295 99.2848 65.5909C99.369 65.75 99.4884 65.8739 99.6431 65.9625C99.7978 66.0511 99.9821 66.0954 100.196 66.0954C100.344 66.0954 100.478 66.075 100.599 66.0341C100.719 65.9932 100.823 65.9329 100.909 65.8534C100.996 65.7739 101.06 65.6761 101.104 65.5602L102.636 65.6045C102.572 65.9477 102.432 66.2466 102.216 66.5011C102.002 66.7534 101.721 66.95 101.373 67.0909C101.025 67.2295 100.622 67.2989 100.165 67.2989Z" fill="black"/>
<path d="M103.793 67.2V61.9636H105.38V62.925H105.438C105.547 62.6068 105.732 62.3557 105.991 62.1716C106.25 61.9875 106.56 61.8954 106.919 61.8954C107.283 61.8954 107.595 61.9886 107.854 62.175C108.114 62.3614 108.279 62.6114 108.349 62.925H108.404C108.502 62.6136 108.693 62.3648 108.977 62.1784C109.261 61.9898 109.597 61.8954 109.984 61.8954C110.48 61.8954 110.882 62.0545 111.192 62.3727C111.501 62.6886 111.656 63.1227 111.656 63.675V67.2H109.987V64.0568C109.987 63.7954 109.92 63.5966 109.786 63.4602C109.652 63.3216 109.478 63.2523 109.264 63.2523C109.034 63.2523 108.853 63.3273 108.721 63.4773C108.591 63.625 108.527 63.8239 108.527 64.0739V67.2H106.923V64.0398C106.923 63.7966 106.857 63.6045 106.725 63.4636C106.593 63.3227 106.419 63.2523 106.203 63.2523C106.057 63.2523 105.929 63.2875 105.817 63.3579C105.706 63.4261 105.618 63.5239 105.554 63.6511C105.493 63.7784 105.462 63.9284 105.462 64.1011V67.2H103.793Z" fill="black"/>
<path d="M115.331 60.2182H117.423L119.197 64.5409H119.279L121.054 60.2182H123.145V67.2H121.501V62.9114H121.443L119.764 67.1557H118.713L117.034 62.8875H116.976V67.2H115.331V60.2182Z" fill="black"/>
<path d="M126.934 67.2989C126.384 67.2989 125.91 67.1864 125.515 66.9614C125.121 66.7341 124.817 66.4182 124.603 66.0136C124.392 65.6068 124.286 65.1352 124.286 64.5989C124.286 64.0602 124.392 63.5886 124.603 63.1841C124.817 62.7773 125.121 62.4614 125.515 62.2364C125.91 62.0091 126.384 61.8954 126.934 61.8954C127.485 61.8954 127.957 62.0091 128.35 62.2364C128.746 62.4614 129.05 62.7773 129.261 63.1841C129.475 63.5886 129.582 64.0602 129.582 64.5989C129.582 65.1352 129.475 65.6068 129.261 66.0136C129.05 66.4182 128.746 66.7341 128.35 66.9614C127.957 67.1864 127.485 67.2989 126.934 67.2989ZM126.944 66.0409C127.145 66.0409 127.314 65.9795 127.453 65.8568C127.592 65.7341 127.697 65.5636 127.77 65.3454C127.845 65.1273 127.883 64.875 127.883 64.5886C127.883 64.2977 127.845 64.0432 127.77 63.825C127.697 63.6068 127.592 63.4364 127.453 63.3136C127.314 63.1909 127.145 63.1295 126.944 63.1295C126.737 63.1295 126.562 63.1909 126.419 63.3136C126.278 63.4364 126.17 63.6068 126.095 63.825C126.022 64.0432 125.985 64.2977 125.985 64.5886C125.985 64.875 126.022 65.1273 126.095 65.3454C126.17 65.5636 126.278 65.7341 126.419 65.8568C126.562 65.9795 126.737 66.0409 126.944 66.0409Z" fill="black"/>
<path d="M132.394 64.2136V67.2H130.725V61.9636H132.312V62.925H132.37C132.486 62.6045 132.684 62.3534 132.964 62.1716C133.244 61.9875 133.577 61.8954 133.964 61.8954C134.332 61.8954 134.652 61.9784 134.923 62.1443C135.196 62.3079 135.407 62.5375 135.557 62.8329C135.71 63.1261 135.785 63.4693 135.783 63.8625V67.2H134.114V64.1898C134.116 63.8989 134.042 63.6716 133.892 63.5079C133.744 63.3443 133.538 63.2625 133.274 63.2625C133.099 63.2625 132.945 63.3011 132.81 63.3784C132.678 63.4534 132.576 63.5614 132.503 63.7023C132.433 63.8432 132.396 64.0136 132.394 64.2136Z" fill="black"/>
<path d="M137.104 67.2V61.9636H138.773V67.2H137.104ZM137.94 61.3534C137.706 61.3534 137.504 61.2761 137.336 61.1216C137.168 60.9648 137.084 60.7761 137.084 60.5557C137.084 60.3375 137.168 60.1511 137.336 59.9966C137.504 59.8398 137.706 59.7614 137.94 59.7614C138.177 59.7614 138.378 59.8398 138.544 59.9966C138.712 60.1511 138.797 60.3375 138.797 60.5557C138.797 60.7761 138.712 60.9648 138.544 61.1216C138.378 61.2761 138.177 61.3534 137.94 61.3534Z" fill="black"/>
<path d="M143.082 61.9636V63.1909H139.775V61.9636H143.082ZM140.468 60.7091H142.136V65.5534C142.136 65.6557 142.152 65.7386 142.184 65.8023C142.218 65.8636 142.267 65.9079 142.331 65.9352C142.395 65.9602 142.471 65.9727 142.56 65.9727C142.623 65.9727 142.69 65.967 142.761 65.9557C142.834 65.942 142.888 65.9307 142.925 65.9216L143.177 67.125C143.098 67.1477 142.985 67.1761 142.839 67.2102C142.696 67.2443 142.524 67.2659 142.324 67.275C141.933 67.2932 141.597 67.2477 141.317 67.1386C141.04 67.0273 140.827 66.8545 140.679 66.6204C140.534 66.3864 140.463 66.092 140.468 65.7375V60.7091Z" fill="black"/>
<path d="M146.612 67.2989C146.061 67.2989 145.588 67.1864 145.192 66.9614C144.799 66.7341 144.495 66.4182 144.281 66.0136C144.07 65.6068 143.964 65.1352 143.964 64.5989C143.964 64.0602 144.07 63.5886 144.281 63.1841C144.495 62.7773 144.799 62.4614 145.192 62.2364C145.588 62.0091 146.061 61.8954 146.612 61.8954C147.162 61.8954 147.634 62.0091 148.028 62.2364C148.424 62.4614 148.728 62.7773 148.939 63.1841C149.153 63.5886 149.26 64.0602 149.26 64.5989C149.26 65.1352 149.153 65.6068 148.939 66.0136C148.728 66.4182 148.424 66.7341 148.028 66.9614C147.634 67.1864 147.162 67.2989 146.612 67.2989ZM146.622 66.0409C146.822 66.0409 146.992 65.9795 147.131 65.8568C147.269 65.7341 147.375 65.5636 147.448 65.3454C147.523 65.1273 147.561 64.875 147.561 64.5886C147.561 64.2977 147.523 64.0432 147.448 63.825C147.375 63.6068 147.269 63.4364 147.131 63.3136C146.992 63.1909 146.822 63.1295 146.622 63.1295C146.415 63.1295 146.24 63.1909 146.097 63.3136C145.956 63.4364 145.847 63.6068 145.772 63.825C145.7 64.0432 145.663 64.2977 145.663 64.5886C145.663 64.875 145.7 65.1273 145.772 65.3454C145.847 65.5636 145.956 65.7341 146.097 65.8568C146.24 65.9795 146.415 66.0409 146.622 66.0409Z" fill="black"/>
<path d="M150.403 67.2V61.9636H152.024V62.9182H152.079C152.174 62.5727 152.33 62.3159 152.546 62.1477C152.762 61.9773 153.014 61.892 153.3 61.892C153.378 61.892 153.457 61.8977 153.539 61.9091C153.621 61.9182 153.697 61.9329 153.768 61.9534V63.4023C153.688 63.375 153.584 63.3534 153.454 63.3375C153.326 63.3216 153.213 63.3136 153.113 63.3136C152.915 63.3136 152.736 63.3579 152.577 63.4466C152.42 63.5329 152.296 63.6545 152.205 63.8114C152.116 63.9659 152.072 64.1477 152.072 64.3568V67.2H150.403Z" fill="black"/>
<path d="M154.736 67.2V61.9636H156.405V67.2H154.736ZM155.572 61.3534C155.338 61.3534 155.136 61.2761 154.968 61.1216C154.8 60.9648 154.716 60.7761 154.716 60.5557C154.716 60.3375 154.8 60.1511 154.968 59.9966C155.136 59.8398 155.338 59.7614 155.572 59.7614C155.809 59.7614 156.01 59.8398 156.176 59.9966C156.344 60.1511 156.429 60.3375 156.429 60.5557C156.429 60.7761 156.344 60.9648 156.176 61.1216C156.01 61.2761 155.809 61.3534 155.572 61.3534Z" fill="black"/>
<path d="M159.424 64.2136V67.2H157.755V61.9636H159.342V62.925H159.4C159.516 62.6045 159.714 62.3534 159.994 62.1716C160.274 61.9875 160.607 61.8954 160.994 61.8954C161.362 61.8954 161.682 61.9784 161.952 62.1443C162.225 62.3079 162.437 62.5375 162.587 62.8329C162.74 63.1261 162.815 63.4693 162.812 63.8625V67.2H161.144V64.1898C161.146 63.8989 161.072 63.6716 160.922 63.5079C160.774 63.3443 160.568 63.2625 160.304 63.2625C160.129 63.2625 159.974 63.3011 159.84 63.3784C159.708 63.4534 159.606 63.5614 159.533 63.7023C159.462 63.8432 159.426 64.0136 159.424 64.2136Z" fill="black"/>
<path d="M166.577 69.2727C166.079 69.2727 165.652 69.2034 165.297 69.0648C164.943 68.9261 164.664 68.7364 164.461 68.4954C164.259 68.2545 164.137 67.9818 164.096 67.6773L165.676 67.5886C165.706 67.6954 165.76 67.7886 165.84 67.8682C165.922 67.9477 166.028 68.0091 166.157 68.0523C166.289 68.0954 166.444 68.117 166.622 68.117C166.901 68.117 167.132 68.0489 167.314 67.9125C167.499 67.7784 167.591 67.5432 167.591 67.2068V66.2864H167.533C167.467 66.4477 167.367 66.592 167.232 66.7193C167.098 66.8466 166.931 66.9466 166.731 67.0193C166.533 67.092 166.305 67.1284 166.048 67.1284C165.666 67.1284 165.316 67.0398 164.997 66.8625C164.681 66.6829 164.427 66.4057 164.236 66.0307C164.047 65.6534 163.953 65.1682 163.953 64.575C163.953 63.9636 164.051 63.4602 164.246 63.0648C164.442 62.667 164.698 62.3727 165.014 62.1818C165.333 61.9909 165.675 61.8954 166.041 61.8954C166.317 61.8954 166.552 61.9432 166.748 62.0386C166.946 62.1318 167.108 62.2523 167.236 62.4C167.363 62.5477 167.46 62.7011 167.526 62.8602H167.574V61.9636H169.235V67.2204C169.235 67.6636 169.124 68.0375 168.901 68.342C168.678 68.6466 168.366 68.8773 167.966 69.0341C167.566 69.1932 167.103 69.2727 166.577 69.2727ZM166.628 65.9148C166.831 65.9148 167.004 65.8614 167.147 65.7545C167.29 65.6477 167.401 65.4943 167.478 65.2943C167.555 65.0943 167.594 64.8545 167.594 64.575C167.594 64.2909 167.555 64.0466 167.478 63.842C167.403 63.6352 167.293 63.4761 167.147 63.3648C167.004 63.2534 166.831 63.1977 166.628 63.1977C166.421 63.1977 166.246 63.2545 166.103 63.3682C165.96 63.4818 165.85 63.642 165.775 63.8489C165.702 64.0534 165.666 64.2954 165.666 64.575C165.666 64.8545 165.704 65.0943 165.779 65.2943C165.854 65.4943 165.962 65.6477 166.103 65.7545C166.246 65.8614 166.421 65.9148 166.628 65.9148Z" fill="black"/>
<path d="M175.524 67.2H172.94V60.2182H175.52C176.232 60.2182 176.845 60.3579 177.36 60.6375C177.876 60.9148 178.274 61.3148 178.554 61.8375C178.834 62.3579 178.974 62.9807 178.974 63.7057C178.974 64.4329 178.834 65.0579 178.554 65.5807C178.276 66.1034 177.879 66.5045 177.363 66.7841C176.847 67.0614 176.233 67.2 175.524 67.2ZM174.63 65.7614H175.459C175.85 65.7614 176.181 65.6954 176.452 65.5636C176.725 65.4295 176.931 65.2125 177.07 64.9125C177.211 64.6102 177.281 64.2079 177.281 63.7057C177.281 63.2034 177.211 62.8034 177.07 62.5057C176.928 62.2057 176.72 61.9898 176.445 61.8579C176.172 61.7239 175.835 61.6568 175.435 61.6568H174.63V65.7614Z" fill="black"/>
<path d="M180.248 67.2V61.9636H181.917V67.2H180.248ZM181.084 61.3534C180.85 61.3534 180.649 61.2761 180.48 61.1216C180.312 60.9648 180.228 60.7761 180.228 60.5557C180.228 60.3375 180.312 60.1511 180.48 59.9966C180.649 59.8398 180.85 59.7614 181.084 59.7614C181.321 59.7614 181.522 59.8398 181.688 59.9966C181.857 60.1511 181.941 60.3375 181.941 60.5557C181.941 60.7761 181.857 60.9648 181.688 61.1216C181.522 61.2761 181.321 61.3534 181.084 61.3534Z" fill="black"/>
<path d="M187.843 63.5625L186.311 63.6034C186.295 63.4943 186.252 63.3977 186.182 63.3136C186.111 63.2273 186.019 63.1602 185.905 63.1125C185.794 63.0625 185.664 63.0375 185.516 63.0375C185.323 63.0375 185.158 63.0761 185.021 63.1534C184.887 63.2307 184.821 63.3352 184.823 63.467C184.821 63.5693 184.862 63.6579 184.946 63.7329C185.033 63.8079 185.186 63.8682 185.407 63.9136L186.417 64.1045C186.94 64.2045 187.329 64.3704 187.584 64.6023C187.841 64.8341 187.971 65.1409 187.973 65.5227C187.971 65.8818 187.864 66.1943 187.652 66.4602C187.443 66.7261 187.156 66.9329 186.792 67.0807C186.428 67.2261 186.012 67.2989 185.543 67.2989C184.795 67.2989 184.205 67.1454 183.772 66.8386C183.342 66.5295 183.097 66.1159 183.035 65.5977L184.683 65.5568C184.72 65.7477 184.814 65.8932 184.967 65.9932C185.119 66.0932 185.314 66.1432 185.55 66.1432C185.764 66.1432 185.938 66.1034 186.072 66.0239C186.207 65.9443 186.275 65.8386 186.277 65.7068C186.275 65.5886 186.223 65.4943 186.12 65.4239C186.018 65.3511 185.857 65.2943 185.639 65.2534L184.724 65.0795C184.199 64.9841 183.808 64.8079 183.551 64.5511C183.293 64.292 183.166 63.9625 183.168 63.5625C183.166 63.2125 183.259 62.9136 183.448 62.6659C183.637 62.4159 183.905 62.225 184.254 62.0932C184.602 61.9614 185.012 61.8954 185.485 61.8954C186.195 61.8954 186.755 62.0443 187.164 62.342C187.574 62.6375 187.8 63.0443 187.843 63.5625Z" fill="black"/>
<path d="M192.042 61.9636V63.1909H188.735V61.9636H192.042ZM189.428 60.7091H191.096V65.5534C191.096 65.6557 191.112 65.7386 191.144 65.8023C191.178 65.8636 191.227 65.9079 191.291 65.9352C191.355 65.9602 191.431 65.9727 191.519 65.9727C191.583 65.9727 191.65 65.967 191.721 65.9557C191.794 65.942 191.848 65.9307 191.885 65.9216L192.137 67.125C192.057 67.1477 191.945 67.1761 191.799 67.2102C191.656 67.2443 191.484 67.2659 191.284 67.275C190.893 67.2932 190.557 67.2477 190.277 67.1386C190 67.0273 189.787 66.8545 189.639 66.6204C189.494 66.3864 189.423 66.092 189.428 65.7375V60.7091Z" fill="black"/>
<path d="M193.181 67.2V61.9636H194.802V62.9182H194.857C194.952 62.5727 195.108 62.3159 195.324 62.1477C195.54 61.9773 195.792 61.892 196.078 61.892C196.156 61.892 196.235 61.8977 196.317 61.9091C196.399 61.9182 196.475 61.9329 196.546 61.9534V63.4023C196.466 63.375 196.362 63.3534 196.232 63.3375C196.105 63.3216 195.991 63.3136 195.891 63.3136C195.693 63.3136 195.514 63.3579 195.355 63.4466C195.198 63.5329 195.074 63.6545 194.983 63.8114C194.894 63.9659 194.85 64.1477 194.85 64.3568V67.2H193.181Z" fill="black"/>
<path d="M197.514 67.2V61.9636H199.183V67.2H197.514ZM198.35 61.3534C198.116 61.3534 197.915 61.2761 197.746 61.1216C197.578 60.9648 197.494 60.7761 197.494 60.5557C197.494 60.3375 197.578 60.1511 197.746 59.9966C197.915 59.8398 198.116 59.7614 198.35 59.7614C198.587 59.7614 198.788 59.8398 198.954 59.9966C199.123 60.1511 199.207 60.3375 199.207 60.5557C199.207 60.7761 199.123 60.9648 198.954 61.1216C198.788 61.2761 198.587 61.3534 198.35 61.3534Z" fill="black"/>
<path d="M200.533 67.2V60.2182H202.202V62.8602H202.236C202.304 62.7011 202.401 62.5477 202.526 62.4C202.654 62.2523 202.815 62.1318 203.011 62.0386C203.209 61.9432 203.445 61.8954 203.721 61.8954C204.085 61.8954 204.425 61.9909 204.741 62.1818C205.059 62.3727 205.316 62.667 205.512 63.0648C205.708 63.4625 205.806 63.9693 205.806 64.5852C205.806 65.1784 205.711 65.675 205.522 66.075C205.336 66.475 205.083 66.775 204.765 66.975C204.449 67.175 204.097 67.275 203.71 67.275C203.446 67.275 203.218 67.2318 203.024 67.1454C202.831 67.0591 202.668 66.9454 202.536 66.8045C202.407 66.6636 202.307 66.5125 202.236 66.3511H202.185V67.2H200.533ZM202.168 64.5818C202.168 64.8636 202.205 65.1091 202.28 65.3182C202.358 65.5273 202.468 65.6898 202.611 65.8057C202.757 65.9193 202.931 65.9761 203.134 65.9761C203.338 65.9761 203.512 65.9193 203.656 65.8057C203.799 65.6898 203.907 65.5273 203.98 65.3182C204.055 65.1091 204.093 64.8636 204.093 64.5818C204.093 64.3 204.055 64.0557 203.98 63.8489C203.907 63.642 203.799 63.4818 203.656 63.3682C203.515 63.2545 203.341 63.1977 203.134 63.1977C202.929 63.1977 202.755 63.2534 202.611 63.3648C202.468 63.4761 202.358 63.6352 202.28 63.842C202.205 64.0489 202.168 64.2954 202.168 64.5818Z" fill="black"/>
<path d="M210.35 64.9398V61.9636H212.015V67.2H210.425V66.225H210.371C210.255 66.5454 210.057 66.8 209.777 66.9886C209.499 67.175 209.164 67.2682 208.77 67.2682C208.413 67.2682 208.099 67.1864 207.828 67.0227C207.558 66.8591 207.347 66.6307 207.197 66.3375C207.047 66.042 206.971 65.6966 206.968 65.3011V61.9636H208.637V64.9739C208.639 65.2579 208.714 65.4818 208.862 65.6454C209.01 65.8091 209.211 65.8909 209.466 65.8909C209.632 65.8909 209.781 65.8545 209.913 65.7818C210.047 65.7068 210.153 65.5989 210.231 65.4579C210.31 65.3148 210.35 65.142 210.35 64.9398Z" fill="black"/>
<path d="M217.942 63.5625L216.41 63.6034C216.394 63.4943 216.351 63.3977 216.28 63.3136C216.21 63.2273 216.117 63.1602 216.004 63.1125C215.892 63.0625 215.762 63.0375 215.615 63.0375C215.421 63.0375 215.256 63.0761 215.12 63.1534C214.986 63.2307 214.92 63.3352 214.922 63.467C214.92 63.5693 214.961 63.6579 215.045 63.7329C215.131 63.8079 215.285 63.8682 215.505 63.9136L216.516 64.1045C217.039 64.2045 217.428 64.3704 217.683 64.6023C217.94 64.8341 218.069 65.1409 218.072 65.5227C218.069 65.8818 217.962 66.1943 217.751 66.4602C217.542 66.7261 217.255 66.9329 216.891 67.0807C216.527 67.2261 216.111 67.2989 215.642 67.2989C214.893 67.2989 214.303 67.1454 213.871 66.8386C213.441 66.5295 213.195 66.1159 213.134 65.5977L214.782 65.5568C214.818 65.7477 214.913 65.8932 215.065 65.9932C215.218 66.0932 215.412 66.1432 215.649 66.1432C215.863 66.1432 216.037 66.1034 216.171 66.0239C216.305 65.9443 216.373 65.8386 216.376 65.7068C216.373 65.5886 216.321 65.4943 216.219 65.4239C216.116 65.3511 215.956 65.2943 215.737 65.2534L214.823 65.0795C214.297 64.9841 213.906 64.8079 213.649 64.5511C213.392 64.292 213.265 63.9625 213.267 63.5625C213.265 63.2125 213.358 62.9136 213.547 62.6659C213.735 62.4159 214.004 62.225 214.352 62.0932C214.7 61.9614 215.111 61.8954 215.584 61.8954C216.294 61.8954 216.853 62.0443 217.263 62.342C217.672 62.6375 217.899 63.0443 217.942 63.5625Z" fill="black"/>
<path d="M219.181 67.2V61.9636H220.85V67.2H219.181ZM220.017 61.3534C219.783 61.3534 219.582 61.2761 219.413 61.1216C219.245 60.9648 219.161 60.7761 219.161 60.5557C219.161 60.3375 219.245 60.1511 219.413 59.9966C219.582 59.8398 219.783 59.7614 220.017 59.7614C220.254 59.7614 220.455 59.8398 220.621 59.9966C220.79 60.1511 220.874 60.3375 220.874 60.5557C220.874 60.7761 220.79 60.9648 220.621 61.1216C220.455 61.2761 220.254 61.3534 220.017 61.3534Z" fill="black"/>
<path d="M228.331 62.3114C228.308 62.0614 228.207 61.867 228.027 61.7284C227.85 61.5875 227.596 61.517 227.266 61.517C227.048 61.517 226.866 61.5454 226.72 61.6023C226.575 61.6591 226.466 61.7375 226.393 61.8375C226.32 61.9352 226.282 62.0477 226.28 62.175C226.276 62.2795 226.296 62.3716 226.342 62.4511C226.389 62.5307 226.458 62.6011 226.546 62.6625C226.637 62.7216 226.746 62.7739 226.874 62.8193C227.001 62.8648 227.145 62.9045 227.304 62.9386L227.904 63.075C228.25 63.15 228.555 63.25 228.819 63.375C229.085 63.5 229.308 63.6489 229.488 63.8216C229.67 63.9943 229.807 64.1932 229.901 64.4182C229.994 64.6432 230.042 64.8954 230.044 65.175C230.042 65.6159 229.93 65.9943 229.71 66.3102C229.489 66.6261 229.172 66.8682 228.758 67.0364C228.346 67.2045 227.849 67.2886 227.266 67.2886C226.682 67.2886 226.172 67.2011 225.738 67.0261C225.303 66.8511 224.965 66.5852 224.724 66.2284C224.483 65.8716 224.359 65.4204 224.352 64.875H225.97C225.983 65.1 226.043 65.2875 226.15 65.4375C226.257 65.5875 226.404 65.7011 226.591 65.7784C226.779 65.8557 226.998 65.8943 227.246 65.8943C227.473 65.8943 227.667 65.8636 227.826 65.8023C227.987 65.7409 228.111 65.6557 228.198 65.5466C228.284 65.4375 228.329 65.3125 228.331 65.1716C228.329 65.0398 228.288 64.9273 228.208 64.8341C228.129 64.7386 228.006 64.6568 227.84 64.5886C227.676 64.5182 227.467 64.4534 227.212 64.3943L226.481 64.2239C225.876 64.0852 225.4 63.8614 225.052 63.5523C224.704 63.2409 224.531 62.8204 224.533 62.2909C224.531 61.8591 224.647 61.4807 224.881 61.1557C225.115 60.8307 225.439 60.5773 225.854 60.3954C226.268 60.2136 226.74 60.1227 227.27 60.1227C227.811 60.1227 228.281 60.2148 228.679 60.3989C229.079 60.5807 229.39 60.8364 229.611 61.1659C229.831 61.4954 229.944 61.8773 229.949 62.3114H228.331Z" fill="black"/>
<path d="M233.636 67.2989C233.087 67.2989 232.614 67.1909 232.216 66.975C231.82 66.7568 231.515 66.4466 231.301 66.0443C231.09 65.6398 230.984 65.1591 230.984 64.6023C230.984 64.0614 231.091 63.5886 231.305 63.1841C231.519 62.7773 231.82 62.4614 232.209 62.2364C232.598 62.0091 233.057 61.8954 233.584 61.8954C233.958 61.8954 234.299 61.9534 234.608 62.0693C234.918 62.1852 235.185 62.3568 235.41 62.5841C235.635 62.8114 235.811 63.092 235.936 63.4261C236.061 63.7579 236.123 64.1386 236.123 64.5682V64.9841H231.568V64.0159H234.571C234.568 63.8386 234.526 63.6807 234.444 63.542C234.362 63.4034 234.25 63.2954 234.107 63.2182C233.965 63.1386 233.803 63.0989 233.619 63.0989C233.432 63.0989 233.265 63.1409 233.117 63.225C232.969 63.3068 232.852 63.4193 232.765 63.5625C232.679 63.7034 232.633 63.8636 232.629 64.0432V65.0284C232.629 65.242 232.671 65.4295 232.755 65.5909C232.839 65.75 232.959 65.8739 233.114 65.9625C233.268 66.0511 233.452 66.0954 233.666 66.0954C233.814 66.0954 233.948 66.075 234.069 66.0341C234.19 65.9932 234.293 65.9329 234.38 65.8534C234.466 65.7739 234.531 65.6761 234.574 65.5602L236.106 65.6045C236.043 65.9477 235.903 66.2466 235.687 66.5011C235.473 66.7534 235.192 66.95 234.844 67.0909C234.496 67.2295 234.093 67.2989 233.636 67.2989Z" fill="black"/>
<path d="M237.264 67.2V61.9636H238.851V62.925H238.909C239.018 62.6068 239.202 62.3557 239.462 62.1716C239.721 61.9875 240.03 61.8954 240.39 61.8954C240.754 61.8954 241.065 61.9886 241.325 62.175C241.584 62.3614 241.749 62.6114 241.82 62.925H241.874C241.972 62.6136 242.163 62.3648 242.447 62.1784C242.732 61.9898 243.067 61.8954 243.454 61.8954C243.95 61.8954 244.353 62.0545 244.662 62.3727C244.972 62.6886 245.126 63.1227 245.126 63.675V67.2H243.458V64.0568C243.458 63.7954 243.39 63.5966 243.256 63.4602C243.122 63.3216 242.948 63.2523 242.734 63.2523C242.504 63.2523 242.323 63.3273 242.191 63.4773C242.062 63.625 241.997 63.8239 241.997 64.0739V67.2H240.393V64.0398C240.393 63.7966 240.327 63.6045 240.195 63.4636C240.063 63.3227 239.889 63.2523 239.673 63.2523C239.527 63.2523 239.399 63.2875 239.287 63.3579C239.176 63.4261 239.088 63.5239 239.025 63.6511C238.963 63.7784 238.933 63.9284 238.933 64.1011V67.2H237.264Z" fill="black"/>
<path d="M248.899 67.2989C248.35 67.2989 247.877 67.1909 247.479 66.975C247.083 66.7568 246.778 66.4466 246.564 66.0443C246.353 65.6398 246.247 65.1591 246.247 64.6023C246.247 64.0614 246.354 63.5886 246.568 63.1841C246.782 62.7773 247.083 62.4614 247.472 62.2364C247.861 62.0091 248.32 61.8954 248.847 61.8954C249.221 61.8954 249.562 61.9534 249.871 62.0693C250.181 62.1852 250.448 62.3568 250.673 62.5841C250.898 62.8114 251.074 63.092 251.199 63.4261C251.324 63.7579 251.386 64.1386 251.386 64.5682V64.9841H246.831V64.0159H249.834C249.831 63.8386 249.789 63.6807 249.707 63.542C249.625 63.4034 249.513 63.2954 249.37 63.2182C249.229 63.1386 249.066 63.0989 248.882 63.0989C248.695 63.0989 248.528 63.1409 248.38 63.225C248.232 63.3068 248.115 63.4193 248.028 63.5625C247.942 63.7034 247.896 63.8636 247.892 64.0432V65.0284C247.892 65.242 247.934 65.4295 248.018 65.5909C248.102 65.75 248.222 65.8739 248.377 65.9625C248.531 66.0511 248.715 66.0954 248.929 66.0954C249.077 66.0954 249.211 66.075 249.332 66.0341C249.453 65.9932 249.556 65.9329 249.643 65.8534C249.729 65.7739 249.794 65.6761 249.837 65.5602L251.369 65.6045C251.306 65.9477 251.166 66.2466 250.95 66.5011C250.736 66.7534 250.455 66.95 250.107 67.0909C249.759 67.2295 249.356 67.2989 248.899 67.2989Z" fill="black"/>
<path d="M254.196 64.2136V67.2H252.527V61.9636H254.114V62.925H254.172C254.288 62.6045 254.486 62.3534 254.765 62.1716C255.045 61.9875 255.379 61.8954 255.765 61.8954C256.134 61.8954 256.454 61.9784 256.724 62.1443C256.997 62.3079 257.209 62.5375 257.359 62.8329C257.511 63.1261 257.586 63.4693 257.584 63.8625V67.2H255.915V64.1898C255.918 63.8989 255.844 63.6716 255.694 63.5079C255.546 63.3443 255.34 63.2625 255.076 63.2625C254.901 63.2625 254.746 63.3011 254.612 63.3784C254.48 63.4534 254.378 63.5614 254.305 63.7023C254.234 63.8432 254.198 64.0136 254.196 64.2136Z" fill="black"/>
<path d="M261.258 67.2V60.2182H264.173C264.696 60.2182 265.134 60.292 265.486 60.4398C265.841 60.5875 266.108 60.7943 266.285 61.0602C266.465 61.3261 266.555 61.6341 266.555 61.9841C266.555 62.25 266.499 62.4875 266.387 62.6966C266.276 62.9034 266.122 63.075 265.927 63.2114C265.731 63.3477 265.505 63.4432 265.248 63.4977V63.5659C265.53 63.5795 265.79 63.6557 266.029 63.7943C266.27 63.9329 266.464 64.1261 266.609 64.3739C266.755 64.6193 266.828 64.9102 266.828 65.2466C266.828 65.6216 266.732 65.9568 266.541 66.2523C266.35 66.5454 266.073 66.7773 265.712 66.9477C265.35 67.1159 264.911 67.2 264.394 67.2H261.258ZM262.948 65.8398H263.992C264.358 65.8398 264.628 65.7704 264.801 65.6318C264.976 65.4932 265.063 65.3 265.063 65.0523C265.063 64.8727 265.021 64.7182 264.937 64.5886C264.853 64.4568 264.733 64.3557 264.579 64.2852C264.424 64.2125 264.239 64.1761 264.023 64.1761H262.948V65.8398ZM262.948 63.0886H263.883C264.067 63.0886 264.231 63.0579 264.374 62.9966C264.517 62.9352 264.629 62.8466 264.708 62.7307C264.79 62.6148 264.831 62.475 264.831 62.3114C264.831 62.0773 264.748 61.8932 264.582 61.7591C264.416 61.625 264.192 61.5579 263.91 61.5579H262.948V63.0886Z" fill="black"/>
<path d="M270.378 67.2989C269.83 67.2989 269.357 67.1909 268.959 66.975C268.563 66.7568 268.258 66.4466 268.044 66.0443C267.832 65.6398 267.727 65.1591 267.727 64.6023C267.727 64.0614 267.834 63.5886 268.047 63.1841C268.261 62.7773 268.563 62.4614 268.952 62.2364C269.341 62.0091 269.799 61.8954 270.327 61.8954C270.7 61.8954 271.041 61.9534 271.351 62.0693C271.66 62.1852 271.927 62.3568 272.153 62.5841C272.378 62.8114 272.553 63.092 272.678 63.4261C272.803 63.7579 272.866 64.1386 272.866 64.5682V64.9841H268.31V64.0159H271.313C271.311 63.8386 271.269 63.6807 271.187 63.542C271.105 63.4034 270.992 63.2954 270.849 63.2182C270.708 63.1386 270.545 63.0989 270.361 63.0989C270.175 63.0989 270.007 63.1409 269.859 63.225C269.712 63.3068 269.594 63.4193 269.508 63.5625C269.422 63.7034 269.376 63.8636 269.372 64.0432V65.0284C269.372 65.242 269.414 65.4295 269.498 65.5909C269.582 65.75 269.701 65.8739 269.856 65.9625C270.011 66.0511 270.195 66.0954 270.409 66.0954C270.557 66.0954 270.691 66.075 270.812 66.0341C270.932 65.9932 271.036 65.9329 271.122 65.8534C271.209 65.7739 271.273 65.6761 271.317 65.5602L272.849 65.6045C272.785 65.9477 272.645 66.2466 272.429 66.5011C272.215 66.7534 271.934 66.95 271.586 67.0909C271.238 67.2295 270.835 67.2989 270.378 67.2989Z" fill="black"/>
<path d="M275.511 65.8261L275.518 63.8386H275.75L277.224 61.9636H279.115L276.924 64.65H276.484L275.511 65.8261ZM274.006 67.2V60.2182H275.675V67.2H274.006ZM277.262 67.2L275.89 65.025L276.989 63.842L279.19 67.2H277.262Z" fill="black"/>
<path d="M283.382 64.9398V61.9636H285.047V67.2H283.457V66.225H283.403C283.287 66.5454 283.089 66.8 282.809 66.9886C282.531 67.175 282.196 67.2682 281.802 67.2682C281.445 67.2682 281.131 67.1864 280.86 67.0227C280.59 66.8591 280.379 66.6307 280.229 66.3375C280.079 66.042 280.003 65.6966 280 65.3011V61.9636H281.669V64.9739C281.671 65.2579 281.746 65.4818 281.894 65.6454C282.042 65.8091 282.244 65.8909 282.498 65.8909C282.664 65.8909 282.813 65.8545 282.945 65.7818C283.08 65.7068 283.185 65.5989 283.263 65.4579C283.342 65.3148 283.382 65.142 283.382 64.9398Z" fill="black"/>
</svg>
