<svg width="65" height="66" viewBox="0 0 65 66" fill="none" xmlns="http://www.w3.org/2000/svg">
<rect y="0.5" width="65" height="65" rx="20" fill="#FE6666"/>
<path d="M45.0503 22.2169C45.5384 21.7287 45.5384 20.9373 45.0503 20.4491C44.5621 19.961 43.7707 19.961 43.2825 20.4491L32.4997 31.2319L21.7169 20.4491C21.2287 19.961 20.4373 19.961 19.9491 20.4491C19.461 20.9373 19.461 21.7287 19.9491 22.2169L30.7319 32.9997L19.9492 43.7825C19.461 44.2706 19.461 45.0621 19.9492 45.5502C20.4373 46.0384 21.2288 46.0384 21.7169 45.5502L32.4997 34.7675L43.2825 45.5502C43.7706 46.0384 44.5621 46.0384 45.0502 45.5502C45.5384 45.0621 45.5384 44.2706 45.0502 43.7825L34.2675 32.9997L45.0503 22.2169Z" fill="white"/>
</svg>
