<svg width="78" height="78" viewBox="0 0 78 78" fill="none" xmlns="http://www.w3.org/2000/svg">
<path d="M67.4375 38.995L51.8441 54.5884C51.7377 54.6948 51.626 54.8076 51.5091 54.9257C50.302 56.1455 48.535 57.9309 46.2258 59.0408C43.9165 60.1507 41.4185 60.4151 39.712 60.5957C39.5467 60.6132 39.3889 60.6299 39.2393 60.6465L38.7737 60.6983C35.4547 61.068 32.1519 61.4358 29.4185 61.3476C26.3394 61.2481 22.4087 60.5509 19.2075 57.3497C16.0063 54.1485 15.3091 50.2179 15.2096 47.1387C15.1214 44.4053 15.4892 41.1025 15.8589 37.7835L15.9107 37.3179C15.9273 37.1684 15.944 37.0106 15.9615 36.8454C16.1421 35.1388 16.4066 32.6407 17.5164 30.3314C18.6263 28.0221 20.4117 26.2552 21.6315 25.048C21.7496 24.9312 21.8625 24.8194 21.9688 24.7131L39.3661 7.31582C38.2609 7.31249 37.1054 7.3125 35.8971 7.3125H35.6029C29.6342 7.31247 24.9555 7.31245 21.2435 7.71462C17.4556 8.12502 14.3863 8.97755 11.7658 10.8815C10.1793 12.0341 8.78413 13.4293 7.6315 15.0158C5.72755 17.6363 4.87502 20.7056 4.46462 24.4935C4.06245 28.2055 4.06247 32.8842 4.0625 38.8529V39.1471C4.06247 45.1158 4.06245 49.7945 4.46462 53.5065C4.87502 57.2945 5.72755 60.3637 7.6315 62.9842C8.78413 64.5707 10.1793 65.9659 11.7658 67.1185C14.3863 69.0224 17.4556 69.875 21.2435 70.2854C24.9554 70.6875 29.634 70.6875 35.6026 70.6875H35.8971C41.8657 70.6875 46.5446 70.6875 50.2565 70.2854C54.0444 69.875 57.1137 69.0224 59.7342 67.1185C61.3207 65.9659 62.7159 64.5707 63.8685 62.9842C65.7724 60.3637 66.625 57.2945 67.0354 53.5065C67.4375 49.7946 67.4375 45.116 67.4375 39.1474V38.995Z" fill="#427D9D"/>
<path d="M41.7545 12.9708L25.7554 28.9696C24.3875 30.3353 23.3059 31.4151 22.6426 32.7952C21.9793 34.1753 21.8118 35.6944 21.5999 37.6156L21.5424 38.1349C21.1461 41.7007 20.8194 44.6399 20.8942 46.9551C20.9724 49.3765 21.4957 51.5945 23.2292 53.328C24.9627 55.0615 27.1807 55.5848 29.6021 55.663C31.9173 55.7378 34.8565 55.4111 38.4222 55.0148L38.9417 54.9573C40.8628 54.7454 42.3819 54.5779 43.762 53.9146C45.1421 53.2513 46.2219 52.1697 47.5875 50.8018L63.5931 34.796L61.8518 33.1265L43.4194 14.6941L41.7545 12.9708Z" fill="#427D9D"/>
<path d="M67.0371 31.3443C68.38 29.981 69.5155 28.7718 70.3701 27.6518C71.6188 26.0151 72.4947 24.2858 72.4947 22.1924C72.4947 20.099 71.6188 18.3697 70.3701 16.733C69.187 15.1823 67.4651 13.4606 65.4002 11.3958L65.1613 11.1569C63.0966 9.09209 61.3748 7.37022 59.8242 6.18713C58.1875 4.93837 56.4582 4.0625 54.3648 4.0625C52.2714 4.0625 50.5421 4.93837 48.9054 6.18713C47.7835 7.04313 46.572 8.18114 45.2059 9.52705L46.9107 11.2912L65.2625 29.643L67.0371 31.3443Z" fill="#427D9D"/>
</svg>
