<svg width="78" height="78" viewBox="0 0 78 78" fill="none" xmlns="http://www.w3.org/2000/svg">
<path fill-rule="evenodd" clip-rule="evenodd" d="M68.25 42.25C68.25 54.4366 68.25 60.5299 65.1465 64.8015C64.1442 66.181 62.931 67.3942 61.5515 68.3965C57.2799 71.5 51.1866 71.5 39 71.5C26.8134 71.5 20.7201 71.5 16.4485 68.3965C15.069 67.3942 13.8558 66.181 12.8535 64.8015C9.75 60.5299 9.75 54.4366 9.75 42.25V35.75C9.75 33.0234 9.75 30.6019 9.78476 28.4375L10.0127 28.4375C12.7817 28.4377 14.4684 28.4379 15.9234 28.2074C23.9196 26.9409 30.1909 20.6696 31.4574 12.6734C31.6879 11.2184 31.6877 9.53172 31.6875 6.76267L31.6875 6.53476C33.8519 6.5 36.2734 6.5 39 6.5C51.1866 6.5 57.2799 6.5 61.5515 9.60347C62.931 10.6058 64.1442 11.819 65.1465 13.1985C68.25 17.4701 68.25 23.5634 68.25 35.75V42.25ZM42.25 23.5625C40.9038 23.5625 39.8125 24.6538 39.8125 26C39.8125 27.3462 40.9038 28.4375 42.25 28.4375H52C53.3462 28.4375 54.4375 27.3462 54.4375 26C54.4375 24.6538 53.3462 23.5625 52 23.5625H42.25ZM26 36.5625C24.6538 36.5625 23.5625 37.6538 23.5625 39C23.5625 40.3462 24.6538 41.4375 26 41.4375H52C53.3462 41.4375 54.4375 40.3462 54.4375 39C54.4375 37.6538 53.3462 36.5625 52 36.5625H26ZM42.25 49.5625C40.9038 49.5625 39.8125 50.6538 39.8125 52C39.8125 53.3462 40.9038 54.4375 42.25 54.4375H52C53.3462 54.4375 54.4375 53.3462 54.4375 52C54.4375 50.6538 53.3462 49.5625 52 49.5625H42.25Z" fill="#427D9D"/>
<path d="M15.1608 23.3924C14.1585 23.5512 12.9209 23.5621 9.96234 23.5625C10.2692 18.8837 11.0193 15.723 12.8535 13.1985C13.8558 11.819 15.069 10.6058 16.4485 9.60347C18.973 7.76934 22.1337 7.01917 26.8125 6.71234C26.8121 9.67095 26.8012 10.9085 26.6424 11.9108C25.7063 17.821 21.071 22.4563 15.1608 23.3924Z" fill="#427D9D"/>
</svg>
