<svg width="78" height="78" viewBox="0 0 78 78" fill="none" xmlns="http://www.w3.org/2000/svg">
<path fill-rule="evenodd" clip-rule="evenodd" d="M16.4485 9.60347C16.7902 9.35521 17.1436 9.1268 17.5108 8.91666C17.6287 9.17938 17.7956 9.42549 18.0113 9.64122C22.2056 13.8353 25.4979 17.1224 28.4 19.4451C31.3381 21.7966 34.0895 23.3401 37.2597 23.8422C39.1965 24.149 41.1696 24.149 43.1064 23.8422C46.1879 23.3542 48.8734 21.8823 51.7196 19.6408C54.5295 17.428 57.6839 14.309 61.6547 10.3411C61.7821 10.2138 61.8924 10.0759 61.9858 9.93022C63.1866 10.8656 64.2508 11.9656 65.1465 13.1985C68.25 17.4701 68.25 23.5634 68.25 35.75V42.25C68.25 54.4366 68.25 60.5299 65.1465 64.8015C64.1442 66.181 62.931 67.3942 61.5515 68.3965C57.2799 71.5 51.1866 71.5 39 71.5C26.8134 71.5 20.7201 71.5 16.4485 68.3965C15.069 67.3942 13.8558 66.181 12.8535 64.8015C9.75 60.5299 9.75 54.4366 9.75 42.25V35.75C9.75 23.5634 9.75 17.4701 12.8535 13.1985C13.8558 11.819 15.069 10.6058 16.4485 9.60347ZM26 30.0625C24.6538 30.0625 23.5625 31.1538 23.5625 32.5C23.5625 33.8462 24.6538 34.9375 26 34.9375H52C53.3462 34.9375 54.4375 33.8462 54.4375 32.5C54.4375 31.1538 53.3462 30.0625 52 30.0625H26ZM26 43.0625C24.6538 43.0625 23.5625 44.1538 23.5625 45.5C23.5625 46.8462 24.6538 47.9375 26 47.9375H52C53.3462 47.9375 54.4375 46.8462 54.4375 45.5C54.4375 44.1538 53.3462 43.0625 52 43.0625H26ZM26 56.0625C24.6538 56.0625 23.5625 57.1538 23.5625 58.5C23.5625 59.8462 24.6538 60.9375 26 60.9375H52C53.3462 60.9375 54.4375 59.8462 54.4375 58.5C54.4375 57.1538 53.3462 56.0625 52 56.0625H26Z" fill="#427D9D"/>
<path d="M39 6.5C47.7748 6.5 53.3905 6.5 57.4417 7.65854C53.8006 11.2901 51.0769 13.9417 48.7034 15.8109C46.2024 17.7806 44.2853 18.7198 42.3438 19.0273C40.9122 19.254 39.4539 19.254 38.0223 19.0273C36.0251 18.7109 34.0541 17.7263 31.4462 15.6391C29.0181 13.6956 26.2243 10.9539 22.4789 7.21394C26.3534 6.5 31.5328 6.5 39 6.5Z" fill="#427D9D"/>
</svg>
