<svg width="78" height="78" viewBox="0 0 78 78" fill="none" xmlns="http://www.w3.org/2000/svg">
<path fill-rule="evenodd" clip-rule="evenodd" d="M48.8591 7.3125C53.3172 7.31249 56.8123 7.31247 59.6215 7.54199C62.4819 7.7757 64.845 8.25948 66.9839 9.34932C70.5002 11.141 73.3591 13.9998 75.1507 17.5161C76.2405 19.655 76.7243 22.0181 76.958 24.8785C77.1875 27.6875 77.1875 31.1826 77.1875 35.6404V35.8593C77.1875 40.317 77.1875 43.8125 76.958 46.6215C76.7243 49.4819 76.2405 51.845 75.1507 53.9839C73.3591 57.5002 70.5002 60.359 66.9839 62.1507C64.845 63.2405 62.4819 63.7243 59.6215 63.958C56.8125 64.1875 53.3174 64.1875 48.8596 64.1875H41.4375V70.1479C43.4667 70.2898 45.4865 70.6091 47.4736 71.1059L52.5912 72.3853C53.8972 72.7118 54.6912 74.0352 54.3647 75.3412C54.0382 76.6472 52.7148 77.4412 51.4088 77.1147L46.2912 75.8353C43.8976 75.2369 41.4488 74.9377 39 74.9377C36.5512 74.9377 34.1024 75.2369 31.7088 75.8353L26.5912 77.1147C25.2852 77.4412 23.9618 76.6472 23.6353 75.3412C23.3088 74.0352 24.1028 72.7118 25.4088 72.3853L30.5264 71.1059C32.5135 70.6091 34.5333 70.2898 36.5625 70.1479V64.1875H29.1407C24.683 64.1875 21.1875 64.1875 18.3785 63.958C15.5181 63.7243 13.155 63.2405 11.0161 62.1507C7.49977 60.359 4.64095 57.5002 2.84932 53.9839C1.75948 51.845 1.2757 49.4819 1.04199 46.6215C0.812474 43.8123 0.812486 40.3172 0.8125 35.8591V35.6409C0.812486 31.1828 0.812474 27.6877 1.04199 24.8785C1.2757 22.0181 1.75948 19.655 2.84932 17.5161C4.64095 13.9998 7.49977 11.141 11.0161 9.34932C13.155 8.25948 15.5181 7.7757 18.3785 7.54199C21.1877 7.31247 24.6828 7.31249 29.1409 7.3125H48.8591ZM36.5625 52C36.5625 53.3462 37.6538 54.4375 39 54.4375L58.5 54.4375C59.8462 54.4375 60.9375 53.3462 60.9375 52C60.9375 50.6538 59.8462 49.5625 58.5 49.5625L39 49.5625C37.6538 49.5625 36.5625 50.6538 36.5625 52ZM26 52C26 53.7949 24.5449 55.25 22.75 55.25C20.9551 55.25 19.5 53.7949 19.5 52C19.5 50.2051 20.9551 48.75 22.75 48.75C24.5449 48.75 26 50.2051 26 52Z" fill="#427D9D"/>
</svg>
