<svg width="78" height="78" viewBox="0 0 78 78" fill="none" xmlns="http://www.w3.org/2000/svg">
<path d="M28.1146 33.6964C25.303 30.9004 23.5625 27.0284 23.5625 22.75C23.5625 18.4716 25.303 14.5996 28.1146 11.8036C26.4958 11.0088 24.675 10.5625 22.75 10.5625C16.019 10.5625 10.5625 16.019 10.5625 22.75C10.5625 29.481 16.019 34.9375 22.75 34.9375C24.675 34.9375 26.4958 34.4912 28.1146 33.6964Z" fill="#427D9D"/>
<path d="M26.8125 22.75C26.8125 16.019 32.269 10.5625 39 10.5625C45.731 10.5625 51.1875 16.019 51.1875 22.75C51.1875 29.481 45.731 34.9375 39 34.9375C32.269 34.9375 26.8125 29.481 26.8125 22.75Z" fill="#427D9D"/>
<path d="M49.8854 11.8036C52.697 14.5996 54.4375 18.4716 54.4375 22.75C54.4375 27.0284 52.697 30.9004 49.8854 33.6964C51.5042 34.4912 53.325 34.9375 55.25 34.9375C61.981 34.9375 67.4375 29.481 67.4375 22.75C67.4375 16.019 61.981 10.5625 55.25 10.5625C53.325 10.5625 51.5042 11.0088 49.8854 11.8036Z" fill="#427D9D"/>
<path d="M17.0625 52C17.0625 45.269 22.519 39.8125 29.25 39.8125H48.75C55.481 39.8125 60.9375 45.269 60.9375 52C60.9375 58.731 55.481 64.1875 48.75 64.1875H29.25C22.519 64.1875 17.0625 58.731 17.0625 52Z" fill="#427D9D"/>
<path d="M0.8125 48.75C0.8125 42.019 6.26903 36.5625 13 36.5625H29.25C20.7241 36.5625 13.8125 43.4741 13.8125 52C13.8125 55.3308 14.8674 58.4153 16.6613 60.9375H13C6.26903 60.9375 0.8125 55.481 0.8125 48.75Z" fill="#427D9D"/>
<path d="M64.1875 52C64.1875 55.3308 63.1326 58.4153 61.3387 60.9375H65C71.731 60.9375 77.1875 55.481 77.1875 48.75C77.1875 42.019 71.731 36.5625 65 36.5625H48.75C57.2759 36.5625 64.1875 43.4741 64.1875 52Z" fill="#427D9D"/>
</svg>
