<svg width="78" height="78" viewBox="0 0 78 78" fill="none" xmlns="http://www.w3.org/2000/svg">
<path fill-rule="evenodd" clip-rule="evenodd" d="M68.25 42.25C68.25 54.4366 68.25 60.5299 65.1465 64.8015C64.1442 66.181 62.931 67.3942 61.5515 68.3965C57.2799 71.5 51.1866 71.5 39 71.5C26.8134 71.5 20.7201 71.5 16.4485 68.3965C15.069 67.3942 13.8558 66.181 12.8535 64.8015C9.75 60.5299 9.75 54.4366 9.75 42.25V35.75C9.75 33.0234 9.75 30.6019 9.78476 28.4375L10.0127 28.4375C12.7817 28.4377 14.4684 28.4379 15.9234 28.2074C23.9196 26.9409 30.1909 20.6696 31.4574 12.6734C31.6879 11.2184 31.6877 9.53172 31.6875 6.76267L31.6875 6.53476C33.8519 6.5 36.2734 6.5 39 6.5C51.1866 6.5 57.2799 6.5 61.5515 9.60347C62.931 10.6058 64.1442 11.819 65.1465 13.1985C68.25 17.4701 68.25 23.5634 68.25 35.75V42.25ZM36.5625 32.5C36.5625 31.1538 37.6538 30.0625 39 30.0625C40.3462 30.0625 41.4375 31.1538 41.4375 32.5V39.8125H48.75C50.0962 39.8125 51.1875 40.9038 51.1875 42.25C51.1875 43.5962 50.0962 44.6875 48.75 44.6875H41.4375V52C41.4375 53.3462 40.3462 54.4375 39 54.4375C37.6538 54.4375 36.5625 53.3462 36.5625 52V44.6875H29.25C27.9038 44.6875 26.8125 43.5962 26.8125 42.25C26.8125 40.9038 27.9038 39.8125 29.25 39.8125H36.5625V32.5Z" fill="#427D9D"/>
<path d="M15.1608 23.3924C14.1585 23.5512 12.9209 23.5621 9.96234 23.5625C10.2692 18.8837 11.0193 15.723 12.8535 13.1985C13.8558 11.819 15.069 10.6058 16.4485 9.60347C18.973 7.76934 22.1337 7.01917 26.8125 6.71234C26.8121 9.67095 26.8012 10.9085 26.6424 11.9108C25.7063 17.821 21.071 22.4563 15.1608 23.3924Z" fill="#427D9D"/>
</svg>
