<svg width="33" height="34" viewBox="0 0 33 34" fill="none" xmlns="http://www.w3.org/2000/svg">
<path fill-rule="evenodd" clip-rule="evenodd" d="M10.0197 1.95842C8.26624 0.347195 5.57098 0.347195 3.8175 1.95842C3.74569 2.0244 3.66903 2.10108 3.56948 2.20065L2.07366 3.69647C0.568468 5.20166 -0.063397 7.37153 0.398374 9.4495C3.01832 21.2393 12.2259 30.4468 24.0157 33.0668C26.0936 33.5285 28.2635 32.8967 29.7687 31.3915L31.2643 29.8958C31.364 29.7962 31.4407 29.7195 31.5067 29.6476C33.118 27.8942 33.118 25.1989 31.5067 23.4454C31.4407 23.3736 31.364 23.2969 31.2644 23.1973L28.8156 20.7485C27.1154 19.0483 24.5479 18.5621 22.3438 19.5228C21.0819 20.0729 19.612 19.7945 18.6387 18.8212L14.644 14.8265C13.6706 13.8531 13.3923 12.3832 13.9423 11.1214C14.9031 8.91728 14.4168 6.34973 12.7167 4.64956L10.2678 2.20068C10.1682 2.1011 10.0915 2.02441 10.0197 1.95842ZM5.50902 3.79928C6.30605 3.06691 7.53117 3.06691 8.32821 3.79928C8.35572 3.82456 8.39178 3.86022 8.51856 3.987L10.9489 6.41733C11.9222 7.39067 12.2006 8.86058 11.6506 10.1224C10.6898 12.3265 11.1761 14.8941 12.8762 16.5942L16.8709 20.5889C18.5711 22.2891 21.1386 22.7753 23.3427 21.8146C24.6046 21.2645 26.0745 21.5429 27.0478 22.5163L29.4781 24.9466C29.6049 25.0734 29.6406 25.1094 29.6659 25.1369C30.3982 25.934 30.3982 27.1591 29.6659 27.9561C29.6406 27.9836 29.6049 28.0197 29.4781 28.1465L28.0009 29.6237C27.1001 30.5245 25.8015 30.9027 24.558 30.6263C13.7158 28.2169 5.24822 19.7494 2.83884 8.90717C2.56249 7.6636 2.94064 6.36503 3.84142 5.46424L5.31866 3.987C5.44544 3.86023 5.4815 3.82456 5.50902 3.79928Z" fill="white"/>
</svg>
