<svg width="24" height="24" viewBox="0 0 24 24" fill="none" xmlns="http://www.w3.org/2000/svg">
<path d="M4.78217 8.93844L4.93861 9.92613H4.93861L4.78217 8.93844ZM8.93844 4.78217L9.92613 4.93861V4.93861L8.93844 4.78217ZM18.9389 20.0451L18.3511 19.2361L18.9389 20.0451ZM20.0451 18.9389L19.2361 18.3511L20.0451 18.9389ZM3.95491 18.9389L4.76393 18.3511L3.95491 18.9389ZM5.06107 20.0451L5.64886 19.2361L5.06107 20.0451ZM5.06107 3.95491L4.47329 3.1459L5.06107 3.95491ZM3.95491 5.06107L3.1459 4.47329L3.95491 5.06107ZM18.9389 3.95491L18.3511 4.76393L18.9389 3.95491ZM20.0451 5.06107L19.2361 5.64886L20.0451 5.06107ZM9 3.02893L8.96576 2.02951L9 3.02893ZM3.02893 9L2.02952 8.96576L3.02893 9ZM13 15C12.4477 15 12 15.4477 12 16C12 16.5523 12.4477 17 13 17V15ZM16 17C16.5523 17 17 16.5523 17 16C17 15.4477 16.5523 15 16 15V17ZM8 11C7.44772 11 7 11.4477 7 12C7 12.5523 7.44772 13 8 13V11ZM16 13C16.5523 13 17 12.5523 17 12C17 11.4477 16.5523 11 16 11V13ZM13 7C12.4477 7 12 7.44772 12 8C12 8.55228 12.4477 9 13 9V7ZM16 9C16.5523 9 17 8.55228 17 8C17 7.44772 16.5523 7 16 7V9ZM4.93861 9.92613C7.50596 9.5195 9.5195 7.50596 9.92613 4.93861L7.95075 4.62574C7.67967 6.33731 6.33731 7.67967 4.62574 7.95075L4.93861 9.92613ZM12 22C13.8526 22 15.3224 22.0014 16.4905 21.8748C17.6773 21.7462 18.6707 21.4761 19.5267 20.8541L18.3511 19.2361C17.8929 19.569 17.2917 19.7763 16.275 19.8865C15.2397 19.9986 13.8971 20 12 20V22ZM20 12C20 13.8971 19.9986 15.2397 19.8865 16.275C19.7763 17.2917 19.569 17.8929 19.2361 18.3511L20.8541 19.5267C21.4761 18.6707 21.7462 17.6773 21.8748 16.4905C22.0014 15.3224 22 13.8526 22 12H20ZM19.5267 20.8541C20.0361 20.484 20.484 20.0361 20.8541 19.5267L19.2361 18.3511C18.9894 18.6907 18.6907 18.9894 18.3511 19.2361L19.5267 20.8541ZM2 12C2 13.8526 1.99863 15.3224 2.12518 16.4905C2.25376 17.6773 2.52395 18.6707 3.1459 19.5267L4.76393 18.3511C4.43097 17.8929 4.22369 17.2917 4.11355 16.275C4.00137 15.2397 4 13.8971 4 12H2ZM12 20C10.1029 20 8.76033 19.9986 7.72497 19.8865C6.70833 19.7763 6.10714 19.569 5.64886 19.2361L4.47329 20.8541C5.32933 21.4761 6.32274 21.7462 7.50955 21.8748C8.67764 22.0014 10.1474 22 12 22V20ZM3.1459 19.5267C3.51597 20.0361 3.96392 20.484 4.47329 20.8541L5.64886 19.2361C5.30928 18.9894 5.01065 18.6907 4.76393 18.3511L3.1459 19.5267ZM4.47329 3.1459C3.96392 3.51597 3.51598 3.96392 3.1459 4.47329L4.76393 5.64886C5.01065 5.30928 5.30928 5.01065 5.64886 4.76393L4.47329 3.1459ZM12 4C13.8971 4 15.2397 4.00137 16.275 4.11355C17.2917 4.22369 17.8929 4.43097 18.3511 4.76393L19.5267 3.1459C18.6707 2.52395 17.6773 2.25376 16.4905 2.12518C15.3224 1.99863 13.8526 2 12 2V4ZM22 12C22 10.1474 22.0014 8.67764 21.8748 7.50955C21.7462 6.32274 21.4761 5.32933 20.8541 4.47329L19.2361 5.64886C19.569 6.10714 19.7763 6.70833 19.8865 7.72497C19.9986 8.76033 20 10.1029 20 12H22ZM18.3511 4.76393C18.6907 5.01065 18.9894 5.30928 19.2361 5.64886L20.8541 4.47329C20.484 3.96392 20.0361 3.51598 19.5267 3.1459L18.3511 4.76393ZM12 2C10.8366 2 9.83088 1.99987 8.96576 2.02951L9.03424 4.02834C9.85782 4.00013 10.8255 4 12 4V2ZM8.96576 2.02951C7.08923 2.09381 5.6433 2.29583 4.47329 3.1459L5.64886 4.76393C6.28806 4.29953 7.1824 4.09179 9.03424 4.02834L8.96576 2.02951ZM8 3.02892C7.99999 3.97534 7.99631 4.33812 7.95075 4.62574L9.92613 4.93861C10.0024 4.45701 9.99999 3.90205 10 3.02894L8 3.02892ZM4 12C4 10.8255 4.00013 9.85782 4.02834 9.03424L2.02952 8.96576C1.99988 9.83088 2 10.8366 2 12H4ZM4.02834 9.03424C4.09179 7.1824 4.29953 6.28806 4.76393 5.64886L3.1459 4.47329C2.29583 5.6433 2.09381 7.08923 2.02952 8.96576L4.02834 9.03424ZM3.02894 10C3.90204 9.99999 4.45701 10.0024 4.93861 9.92613L4.62574 7.95075C4.33812 7.99631 3.97534 7.99999 3.02892 8L3.02894 10ZM13 17H16V15H13V17ZM8 13H16V11H8V13ZM13 9H16V7H13V9Z" fill="#164863"/>
</svg>
