<svg width="24" height="24" viewBox="0 0 24 24" fill="none" xmlns="http://www.w3.org/2000/svg">
<path d="M5.06107 21.0451L5.64886 20.2361L5.06107 21.0451ZM3.95491 19.9389L4.76393 19.3511L3.95491 19.9389ZM20.0451 19.9389L19.2361 19.3511L20.0451 19.9389ZM18.9389 21.0451L18.3511 20.2361L18.9389 21.0451ZM18.9389 2.95491L19.5267 2.1459L18.9389 2.95491ZM20.0451 4.06107L19.2361 4.64886L20.0451 4.06107ZM5.06107 2.95491L5.64886 3.76393L5.06107 2.95491ZM3.95491 4.06107L4.76393 4.64886L3.95491 4.06107ZM13.1461 6.59531L13.3026 7.583L13.3026 7.583L13.1461 6.59531ZM11.5818 6.59531L11.4254 7.583L11.4254 7.583L11.5818 6.59531ZM8 17C7.44772 17 7 17.4477 7 18C7 18.5523 7.44772 19 8 19V17ZM16 19C16.5523 19 17 18.5523 17 18C17 17.4477 16.5523 17 16 17V19ZM8 13C7.44772 13 7 13.4477 7 14C7 14.5523 7.44772 15 8 15V13ZM16 15C16.5523 15 17 14.5523 17 14C17 13.4477 16.5523 13 16 13V15ZM8 9C7.44772 9 7 9.44772 7 10C7 10.5523 7.44772 11 8 11V9ZM16 11C16.5523 11 17 10.5523 17 10C17 9.44772 16.5523 9 16 9V11ZM20 11V13H22V11H20ZM4 13V11H2V13H4ZM12 21C10.1029 21 8.76033 20.9986 7.72497 20.8865C6.70833 20.7763 6.10714 20.569 5.64886 20.2361L4.47329 21.8541C5.32933 22.4761 6.32274 22.7462 7.50955 22.8748C8.67764 23.0014 10.1474 23 12 23V21ZM2 13C2 14.8526 1.99863 16.3224 2.12518 17.4905C2.25376 18.6773 2.52395 19.6707 3.1459 20.5267L4.76393 19.3511C4.43097 18.8929 4.22369 18.2917 4.11355 17.275C4.00137 16.2397 4 14.8971 4 13H2ZM5.64886 20.2361C5.30928 19.9894 5.01065 19.6907 4.76393 19.3511L3.1459 20.5267C3.51598 21.0361 3.96392 21.484 4.47329 21.8541L5.64886 20.2361ZM20 13C20 14.8971 19.9986 16.2397 19.8865 17.275C19.7763 18.2917 19.569 18.8929 19.2361 19.3511L20.8541 20.5267C21.4761 19.6707 21.7462 18.6773 21.8748 17.4905C22.0014 16.3224 22 14.8526 22 13H20ZM12 23C13.8526 23 15.3224 23.0014 16.4905 22.8748C17.6773 22.7462 18.6707 22.4761 19.5267 21.8541L18.3511 20.2361C17.8929 20.569 17.2917 20.7763 16.275 20.8865C15.2397 20.9986 13.8971 21 12 21V23ZM19.2361 19.3511C18.9894 19.6907 18.6907 19.9893 18.3511 20.2361L19.5267 21.8541C20.0361 21.484 20.484 21.0361 20.8541 20.5267L19.2361 19.3511ZM22 11C22 9.14741 22.0014 7.67764 21.8748 6.50955C21.7462 5.32274 21.4761 4.32933 20.8541 3.47329L19.2361 4.64886C19.569 5.10714 19.7763 5.70833 19.8865 6.72497C19.9986 7.76033 20 9.10286 20 11H22ZM18.3511 3.76393C18.6907 4.01065 18.9894 4.30928 19.2361 4.64886L20.8541 3.47329C20.484 2.96392 20.0361 2.51597 19.5267 2.1459L18.3511 3.76393ZM4 11C4 9.10286 4.00137 7.76033 4.11355 6.72497C4.22369 5.70833 4.43097 5.10714 4.76393 4.64886L3.1459 3.47329C2.52395 4.32933 2.25376 5.32274 2.12518 6.50955C1.99863 7.67764 2 9.14741 2 11H4ZM4.47329 2.1459C3.96392 2.51598 3.51598 2.96392 3.1459 3.47329L4.76393 4.64886C5.01065 4.30928 5.30928 4.01065 5.64886 3.76393L4.47329 2.1459ZM12.9897 5.60762C12.5751 5.67328 12.1528 5.67328 11.7382 5.60762L11.4254 7.583C12.0472 7.68149 12.6807 7.68149 13.3026 7.583L12.9897 5.60762ZM17.7336 1.94399C16.4904 3.18638 15.5977 4.06466 14.8309 4.66849C14.0791 5.2606 13.5286 5.52227 12.9897 5.60762L13.3026 7.583C14.3092 7.42356 15.1749 6.94336 16.0684 6.23974C16.9469 5.54784 17.9286 4.57654 19.1473 3.35871L17.7336 1.94399ZM12 3C13.6655 3 14.9073 3.00071 15.8953 3.07835C16.88 3.15573 17.5143 3.30428 17.9902 3.54425L18.8907 1.75845C18.0749 1.34707 17.1394 1.16995 16.052 1.08449C14.9678 0.999295 13.6353 1 12 1V3ZM17.9902 3.54425C18.1188 3.60909 18.2381 3.68181 18.3511 3.76393L19.5267 2.1459C19.325 1.99936 19.1135 1.8708 18.8907 1.75845L17.9902 3.54425ZM5.36513 3.14331C6.65196 4.43009 7.67598 5.45299 8.5822 6.1783C9.50315 6.91539 10.3898 7.41898 11.4254 7.583L11.7382 5.60762C11.1838 5.51982 10.6174 5.24551 9.83193 4.61684C9.03172 3.97637 8.09593 3.04563 6.77931 1.72907L5.36513 3.14331ZM12 1C10.5662 1 9.36819 0.999643 8.37071 1.05612C7.37419 1.11255 6.507 1.22832 5.74605 1.49088L6.39839 3.3815C6.90159 3.20787 7.55439 3.10555 8.48377 3.05292C9.41218 3.00036 10.5459 3 12 3V1ZM5.74605 1.49088C5.28435 1.65018 4.8628 1.8629 4.47329 2.1459L5.64886 3.76393C5.86358 3.60793 6.10548 3.48257 6.39839 3.3815L5.74605 1.49088ZM8 19H16V17H8V19ZM8 15H16V13H8V15ZM8 11H16V9H8V11Z" fill="#164863"/>
</svg>
