<svg width="24" height="24" viewBox="0 0 24 24" fill="none" xmlns="http://www.w3.org/2000/svg">
<path d="M2.76696 15.8197L3.71801 15.5106L2.76696 15.8197ZM1.65645 9.65157L2.6182 9.92551L1.65645 9.65157ZM6.29367 4.96556L5.70588 4.15654L6.29367 4.96556ZM1.76974 9.30291L2.70883 9.64659L1.76974 9.30291ZM5.79064 21.678L5.23291 22.508L5.79064 21.678ZM5.49405 21.4625L4.877 22.2494L5.49405 21.4625ZM21.2331 15.8197L20.282 15.5106L21.2331 15.8197ZM18.506 21.4625L19.123 22.2494L18.506 21.4625ZM18.2094 21.678L18.7671 22.508L18.2094 21.678ZM17.7063 4.96556L18.2941 4.15654L17.7063 4.96556ZM22.2303 9.30291L21.2912 9.64659L22.2303 9.30291ZM22.3436 9.65157L21.3818 9.92551L22.3436 9.65157ZM12.1833 2.00336L12.1466 3.00269L12.1833 2.00336ZM11.8167 2.00336L11.8534 3.00269L11.8167 2.00336ZM11 19.8197C11 20.3719 11.4477 20.8197 12 20.8197C12.5523 20.8197 13 20.3719 13 19.8197H11ZM13 17.8197C13 17.2674 12.5523 16.8197 12 16.8197C11.4477 16.8197 11 17.2674 11 17.8197H13ZM16 22.4063L16.1203 23.3991L16 22.4063ZM3.71801 15.5106C3.20198 13.9225 2.84079 12.8064 2.65195 11.9046C2.46791 11.0257 2.47014 10.4453 2.6182 9.92551L0.694705 9.37763C0.42532 10.3234 0.473481 11.2595 0.694402 12.3145C0.910514 13.3466 1.3133 14.5818 1.8159 16.1287L3.71801 15.5106ZM5.70588 4.15654C4.39006 5.11254 3.33813 5.87514 2.55666 6.58307C1.7578 7.30675 1.16861 8.03577 0.830649 8.95924L2.70883 9.64659C2.89457 9.13903 3.23394 8.66815 3.89941 8.0653C4.58227 7.4467 5.53046 6.75613 6.88145 5.77458L5.70588 4.15654ZM2.6182 9.92551C2.64499 9.83146 2.67522 9.73842 2.70883 9.64659L0.830649 8.95924C0.780235 9.09699 0.73489 9.23655 0.694705 9.37763L2.6182 9.92551ZM1.8159 16.1287C2.3185 17.6755 2.71871 18.9116 3.1505 19.8736C3.5919 20.857 4.10317 21.6426 4.877 22.2494L6.1111 20.6756C5.68579 20.3421 5.34282 19.8738 4.97512 19.0546C4.59781 18.214 4.23404 17.0988 3.71801 15.5106L1.8159 16.1287ZM6.34837 20.8479C6.2672 20.7934 6.18805 20.7359 6.1111 20.6756L4.877 22.2494C4.99244 22.3399 5.11115 22.4262 5.23291 22.508L6.34837 20.8479ZM20.282 15.5106C19.766 17.0988 19.4022 18.214 19.0249 19.0546C18.6572 19.8738 18.3142 20.3421 17.8889 20.6756L19.123 22.2494C19.8968 21.6426 20.4081 20.857 20.8495 19.8736C21.2813 18.9116 21.6815 17.6755 22.1841 16.1287L20.282 15.5106ZM17.8889 20.6756C17.812 20.7359 17.7328 20.7934 17.6516 20.8479L18.7671 22.508C18.8889 22.4262 19.0076 22.3399 19.123 22.2494L17.8889 20.6756ZM17.1186 5.77458C18.4695 6.75613 19.4177 7.4467 20.1006 8.0653C20.7661 8.66815 21.1054 9.13903 21.2912 9.64659L23.1694 8.95924C22.8314 8.03577 22.2422 7.30675 21.4433 6.58307C20.6619 5.87514 19.61 5.11254 18.2941 4.15654L17.1186 5.77458ZM22.1841 16.1287C22.6867 14.5818 23.0895 13.3466 23.3056 12.3145C23.5265 11.2595 23.5747 10.3234 23.3053 9.37763L21.3818 9.92551C21.5299 10.4453 21.5321 11.0257 21.3481 11.9046C21.1592 12.8064 20.798 13.9225 20.282 15.5106L22.1841 16.1287ZM21.2912 9.64659C21.3248 9.73842 21.355 9.83146 21.3818 9.92551L23.3053 9.37763C23.2651 9.23655 23.2198 9.09699 23.1694 8.95924L21.2912 9.64659ZM18.2941 4.15654C16.9783 3.20054 15.928 2.43575 15.0132 1.91129C14.0781 1.37516 13.2027 1.04008 12.22 1.00403L12.1466 3.00269C12.6868 3.0225 13.2395 3.19975 14.0184 3.64636C14.8178 4.10464 15.7676 4.79302 17.1186 5.77458L18.2941 4.15654ZM6.88145 5.77458C8.23244 4.79302 9.18222 4.10464 9.98157 3.64636C10.7606 3.19975 11.3133 3.0225 11.8534 3.00269L11.78 1.00403C10.7973 1.04008 9.92193 1.37516 8.98681 1.91129C8.07204 2.43575 7.02171 3.20054 5.70588 4.15654L6.88145 5.77458ZM12.22 1.00403C12.0734 0.998656 11.9266 0.998656 11.78 1.00403L11.8534 3.00269C11.9511 2.9991 12.0489 2.9991 12.1466 3.00269L12.22 1.00403ZM15 17.8197V21.8197H17V17.8197H15ZM9.00001 21.8197V17.8197H7.00001V21.8197H9.00001ZM12 14.8197C13.6569 14.8197 15 16.1628 15 17.8197H17C17 15.0582 14.7614 12.8197 12 12.8197V14.8197ZM12 12.8197C9.23858 12.8197 7.00001 15.0582 7.00001 17.8197H9.00001C9.00001 16.1628 10.3432 14.8197 12 14.8197V12.8197ZM13 19.8197V17.8197H11V19.8197H13ZM12 23.5279C13.6989 23.5279 15.043 23.5296 16.1203 23.3991L15.8797 21.4136C14.9506 21.5262 13.7486 21.5279 12 21.5279V23.5279ZM16.1203 23.3991C17.1292 23.2769 17.9886 23.0311 18.7671 22.508L17.6516 20.8479C17.2233 21.1358 16.7014 21.3141 15.8797 21.4136L16.1203 23.3991ZM15 21.8197V22.4063H17V21.8197H15ZM12 21.5279C10.2514 21.5279 9.04944 21.5262 8.12026 21.4136L7.87975 23.3991C8.957 23.5296 10.3011 23.5279 12 23.5279V21.5279ZM8.12026 21.4136C7.29861 21.3141 6.77674 21.1358 6.34837 20.8479L5.23291 22.508C6.01137 23.0311 6.87086 23.2769 7.87975 23.3991L8.12026 21.4136ZM7.00001 21.8197V22.4063H9.00001V21.8197H7.00001Z" fill="#164863"/>
</svg>
