<svg width="24" height="24" viewBox="0 0 24 24" fill="none" xmlns="http://www.w3.org/2000/svg">
<path d="M3.73005 18.455L4.18404 17.564L3.73005 18.455ZM1.54497 16.27L2.43597 15.816L1.54497 16.27ZM22.455 16.27L21.564 15.816L22.455 16.27ZM20.27 18.455L19.816 17.564L20.27 18.455ZM20.27 3.54497L19.816 4.43597L20.27 3.54497ZM22.455 5.73005L21.564 6.18404L22.455 5.73005ZM3.73005 3.54497L4.18404 4.43597L3.73005 3.54497ZM1.54497 5.73005L2.43597 6.18404L1.54497 5.73005ZM7.75746 22.0299C7.22167 22.1638 6.89591 22.7067 7.02986 23.2425C7.16381 23.7783 7.70674 24.1041 8.24254 23.9701L7.75746 22.0299ZM9.57465 22.6063L9.33211 21.6362L9.57465 22.6063ZM14.4254 22.6063L14.6679 21.6362L14.4254 22.6063ZM15.7575 23.9701C16.2933 24.1041 16.8362 23.7783 16.9701 23.2425C17.1041 22.7067 16.7783 22.1638 16.2425 22.0299L15.7575 23.9701ZM13 19C13 18.4477 12.5523 18 12 18C11.4477 18 11 18.4477 11 19H13ZM12 15C11.4477 15 11 15.4477 11 16C11 16.5523 11.4477 17 12 17V15ZM18 17C18.5523 17 19 16.5523 19 16C19 15.4477 18.5523 15 18 15V17ZM12 22.3078V23.3078V22.3078ZM9 4H15V2H9V4ZM15 18H9V20H15V18ZM9 18C7.58337 18 6.58104 17.9992 5.79744 17.9352C5.02552 17.8721 4.55435 17.7527 4.18404 17.564L3.27606 19.346C3.9753 19.7023 4.73898 19.8554 5.63458 19.9286C6.51851 20.0008 7.61637 20 9 20V18ZM0 11C0 12.3836 -0.000777721 13.4815 0.071442 14.3654C0.144616 15.261 0.297677 16.0247 0.653961 16.7239L2.43597 15.816C2.24729 15.4457 2.12787 14.9745 2.0648 14.2026C2.00078 13.419 2 12.4166 2 11H0ZM4.18404 17.564C3.43139 17.1805 2.81947 16.5686 2.43597 15.816L0.653961 16.7239C1.2292 17.8529 2.14708 18.7708 3.27606 19.346L4.18404 17.564ZM22 11C22 12.4166 21.9992 13.419 21.9352 14.2026C21.8721 14.9745 21.7527 15.4457 21.564 15.816L23.346 16.7239C23.7023 16.0247 23.8554 15.261 23.9286 14.3654C24.0008 13.4815 24 12.3836 24 11H22ZM15 20C16.3836 20 17.4815 20.0008 18.3654 19.9286C19.261 19.8554 20.0247 19.7023 20.7239 19.346L19.816 17.564C19.4457 17.7527 18.9745 17.8721 18.2026 17.9352C17.419 17.9992 16.4166 18 15 18V20ZM21.564 15.816C21.1805 16.5686 20.5686 17.1805 19.816 17.564L20.7239 19.346C21.8529 18.7708 22.7708 17.8529 23.346 16.7239L21.564 15.816ZM15 4C16.4166 4 17.419 4.00078 18.2026 4.0648C18.9745 4.12787 19.4457 4.24729 19.816 4.43597L20.7239 2.65396C20.0247 2.29768 19.261 2.14462 18.3654 2.07144C17.4815 1.99922 16.3836 2 15 2V4ZM24 11C24 9.61637 24.0008 8.51851 23.9286 7.63458C23.8554 6.73898 23.7023 5.9753 23.346 5.27606L21.564 6.18404C21.7527 6.55435 21.8721 7.02552 21.9352 7.79744C21.9992 8.58104 22 9.58337 22 11H24ZM19.816 4.43597C20.5686 4.81947 21.1805 5.43139 21.564 6.18404L23.346 5.27606C22.7708 4.14708 21.8529 3.2292 20.7239 2.65396L19.816 4.43597ZM9 2C7.61637 2 6.51851 1.99922 5.63458 2.07144C4.73898 2.14462 3.9753 2.29768 3.27606 2.65396L4.18404 4.43597C4.55435 4.24729 5.02552 4.12787 5.79744 4.0648C6.58104 4.00078 7.58337 4 9 4V2ZM2 11C2 9.58337 2.00078 8.58104 2.0648 7.79744C2.12787 7.02552 2.24729 6.55435 2.43597 6.18404L0.653961 5.27606C0.297677 5.9753 0.144616 6.73898 0.071442 7.63458C-0.000777721 8.51851 0 9.61637 0 11H2ZM3.27606 2.65396C2.14708 3.2292 1.2292 4.14708 0.653961 5.27606L2.43597 6.18404C2.81947 5.43139 3.43139 4.81947 4.18404 4.43597L3.27606 2.65396ZM8.24254 23.9701L9.81718 23.5765L9.33211 21.6362L7.75746 22.0299L8.24254 23.9701ZM14.1828 23.5765L15.7575 23.9701L16.2425 22.0299L14.6679 21.6362L14.1828 23.5765ZM13 22V19H11V22H13ZM12 17L18 17V15L12 15V17ZM9.81718 23.5765C10.5338 23.3973 11.2669 23.3078 12 23.3078V21.3078C11.104 21.3078 10.2079 21.4172 9.33211 21.6362L9.81718 23.5765ZM12 23.3078C12.7331 23.3078 13.4662 23.3973 14.1828 23.5765L14.6679 21.6362C13.7921 21.4172 12.896 21.3078 12 21.3078V23.3078ZM11 22V22.3078H13V22H11Z" fill="#164863"/>
<path d="M8 16C8 16.5523 7.55228 17 7 17C6.44772 17 6 16.5523 6 16C6 15.4477 6.44772 15 7 15C7.55228 15 8 15.4477 8 16Z" fill="#164863"/>
</svg>
