<svg width="29" height="30" viewBox="0 0 29 30" fill="none" xmlns="http://www.w3.org/2000/svg">
<path fill-rule="evenodd" clip-rule="evenodd" d="M18.3712 2.87128L18.5213 2.95795C19.8181 3.70664 20.8996 4.33095 21.6914 4.94202C22.5272 5.58701 23.1906 6.32734 23.4685 7.36431C23.7463 8.40128 23.542 9.37411 23.1406 10.3506C22.7604 11.2757 22.136 12.3571 21.3873 13.6539L14.9281 24.8418C14.4332 25.7006 14.0418 26.3797 13.4462 26.8914C12.8506 27.4032 12.1204 27.6878 11.1969 28.0477L10.9473 28.1451C9.23359 28.8147 7.82099 29.3667 6.66423 29.6369C5.45442 29.9196 4.28631 29.9547 3.19753 29.3261C2.10874 28.6975 1.55515 27.6683 1.19503 26.4793C0.850696 25.3423 0.622395 23.8431 0.34542 22.0242L0.30499 21.7593C0.154942 20.7795 0.036296 20.0048 0.181687 19.2331C0.199861 19.1367 0.221896 19.0417 0.24751 18.9476C0.426812 18.289 0.781552 17.6758 1.21582 16.925L7.67519 5.73726C8.42388 4.44039 9.04819 3.35897 9.65926 2.56711C10.3043 1.73131 11.0446 1.06793 12.0815 0.79007C13.1185 0.512214 14.0914 0.716556 15.0678 1.11789C15.993 1.49812 17.0743 2.1225 18.3712 2.87128ZM9.17192 8.14485L18.5539 13.5615L12.8481 23.4441C12.2265 24.5208 12.0488 24.7961 11.817 24.9952C11.5852 25.1944 11.2863 25.3287 10.1283 25.7811C8.30086 26.495 7.05625 26.978 6.09546 27.2025C5.16734 27.4193 4.74618 27.3335 4.44752 27.1611C4.14886 26.9886 3.86397 26.6668 3.5877 25.7546C3.30171 24.8103 3.09765 23.491 2.80224 21.5514C2.61506 20.3223 2.58187 19.9964 2.63846 19.696C2.69505 19.3957 2.84459 19.1041 3.46619 18.0275L9.17192 8.14485ZM20.8283 9.40023C20.6075 9.93762 20.2697 10.5695 19.8012 11.3949L10.4245 5.98129C10.9052 5.16291 11.2835 4.55443 11.6385 4.09446C12.1126 3.48009 12.4319 3.28438 12.7286 3.20489C13.0253 3.12539 13.3997 3.13521 14.1175 3.43021C14.8688 3.739 15.8048 4.27633 17.1962 5.07968C18.5877 5.88302 19.521 6.42495 20.1641 6.92122C20.7784 7.39532 20.9742 7.71466 21.0537 8.01136C21.1332 8.30805 21.1233 8.68247 20.8283 9.40023Z" fill="white"/>
<path d="M16.0995 28.7518C16.0995 28.0614 16.6591 27.5018 17.3495 27.5018H27.3495C28.0398 27.5018 28.5995 28.0614 28.5995 28.7518C28.5995 29.4421 28.0398 30.0018 27.3495 30.0018H17.3495C16.6591 30.0018 16.0995 29.4421 16.0995 28.7518Z" fill="white"/>
</svg>
