<svg width="24" height="24" viewBox="0 0 24 24" fill="none" xmlns="http://www.w3.org/2000/svg">
<path d="M14 7.75C14 8.85457 13.1046 9.75 12 9.75V11.75C14.2091 11.75 16 9.95914 16 7.75H14ZM12 9.75C10.8954 9.75 10 8.85457 10 7.75H8C8 9.95914 9.79086 11.75 12 11.75V9.75ZM10 7.75C10 6.64543 10.8954 5.75 12 5.75V3.75C9.79086 3.75 8 5.54086 8 7.75H10ZM12 5.75C13.1046 5.75 14 6.64543 14 7.75H16C16 5.54086 14.2091 3.75 12 3.75V5.75ZM9 14.75H15V12.75H9V14.75ZM15 18.75H9V20.75H15V18.75ZM9 18.75C7.89543 18.75 7 17.8546 7 16.75H5C5 18.9591 6.79086 20.75 9 20.75V18.75ZM17 16.75C17 17.8546 16.1046 18.75 15 18.75V20.75C17.2091 20.75 19 18.9591 19 16.75H17ZM15 14.75C16.1046 14.75 17 15.6454 17 16.75H19C19 14.5409 17.2091 12.75 15 12.75V14.75ZM9 12.75C6.79086 12.75 5 14.5409 5 16.75H7C7 15.6454 7.89543 14.75 9 14.75V12.75Z" fill="#164863"/>
<path d="M7.75214 10.3887C7.59441 10.1353 7.29846 10 7 10C5.75736 10 4.75 8.99264 4.75 7.75C4.75 6.50736 5.75736 5.5 7 5.5C7.29846 5.5 7.59441 5.36473 7.75214 5.11135C7.75912 5.10014 7.76613 5.08896 7.7732 5.07782C8.0358 4.66331 7.90275 4.0764 7.415 4.0227C7.27873 4.0077 7.14027 4 7 4C4.92893 4 3.25 5.67893 3.25 7.75C3.25 9.82107 4.92893 11.5 7 11.5C7.14027 11.5 7.27873 11.4923 7.415 11.4773C7.90275 11.4236 8.0358 10.8367 7.7732 10.4222C7.76614 10.411 7.75912 10.3999 7.75214 10.3887Z" fill="#164863"/>
<path d="M4.70829 18.3169C4.59477 18.1275 4.39439 18 4.17359 18H4C2.75736 18 1.75 16.9926 1.75 15.75C1.75 14.5074 2.75736 13.5 4 13.5H4.17359C4.39439 13.5 4.59477 13.3725 4.70829 13.1831C4.98539 12.7208 4.68468 12 4.14569 12H4C1.92893 12 0.25 13.6789 0.25 15.75C0.25 17.8211 1.92893 19.5 4 19.5H4.14569C4.68469 19.5 4.98539 18.7792 4.70829 18.3169Z" fill="#164863"/>
<path d="M16.2268 10.4222C15.9642 10.8367 16.0973 11.4236 16.585 11.4773C16.7213 11.4923 16.8597 11.5 17 11.5C19.0711 11.5 20.75 9.82107 20.75 7.75C20.75 5.67893 19.0711 4 17 4C16.8597 4 16.7213 4.0077 16.585 4.0227C16.0973 4.0764 15.9642 4.66331 16.2268 5.07782C16.2339 5.08896 16.2409 5.10014 16.2479 5.11134C16.4056 5.36472 16.7015 5.5 17 5.5C18.2426 5.5 19.25 6.50736 19.25 7.75C19.25 8.99264 18.2426 10 17 10C16.7015 10 16.4056 10.1353 16.2479 10.3887C16.2409 10.3999 16.2339 10.411 16.2268 10.4222Z" fill="#164863"/>
<path d="M19.2917 18.3169C19.0146 18.7792 19.3153 19.5 19.8543 19.5H20C22.0711 19.5 23.75 17.8211 23.75 15.75C23.75 13.6789 22.0711 12 20 12H19.8543C19.3153 12 19.0146 12.7208 19.2917 13.1831C19.4052 13.3725 19.6056 13.5 19.8264 13.5H20C21.2426 13.5 22.25 14.5074 22.25 15.75C22.25 16.9926 21.2426 18 20 18H19.8264C19.6056 18 19.4052 18.1275 19.2917 18.3169Z" fill="#164863"/>
</svg>
