<svg width="28" height="28" viewBox="0 0 28 28" fill="none" xmlns="http://www.w3.org/2000/svg">
<path fill-rule="evenodd" clip-rule="evenodd" d="M13.9999 9.62504C11.5836 9.62504 9.62486 11.5838 9.62486 14C9.62486 16.4163 11.5836 18.375 13.9999 18.375C16.4161 18.375 18.3749 16.4163 18.3749 14C18.3749 11.5838 16.4161 9.62504 13.9999 9.62504ZM11.3749 14C11.3749 12.5503 12.5501 11.375 13.9999 11.375C15.4496 11.375 16.6249 12.5503 16.6249 14C16.6249 15.4498 15.4496 16.625 13.9999 16.625C12.5501 16.625 11.3749 15.4498 11.3749 14Z" fill="#7B7B7B"/>
<path fill-rule="evenodd" clip-rule="evenodd" d="M17.9837 3.77103C16.8399 -0.236911 11.1598 -0.23691 10.016 3.77103C9.66163 5.01284 8.38582 5.74942 7.13319 5.43544C3.0903 4.42204 0.250285 9.3411 3.14936 12.3356C4.0476 13.2635 4.0476 14.7366 3.14936 15.6644C0.250284 18.659 3.0903 23.578 7.13319 22.5646C8.38582 22.2507 9.66163 22.9872 10.016 24.229C11.1598 28.237 16.8399 28.237 17.9837 24.229C18.3381 22.9872 19.6139 22.2507 20.8665 22.5646C24.9094 23.578 27.7494 18.659 24.8504 15.6644C23.9521 14.7366 23.9521 13.2635 24.8504 12.3356C27.7494 9.3411 24.9094 4.42204 20.8665 5.43544C19.6139 5.74942 18.3381 5.01284 17.9837 3.77103ZM11.6988 4.25129C12.3595 1.93634 15.6402 1.93634 16.3009 4.25129C16.9145 6.40126 19.1233 7.67654 21.292 7.13292C23.6271 6.54759 25.2675 9.38879 23.593 11.1184C22.0379 12.7248 22.0379 15.2753 23.593 16.8817C25.2675 18.6113 23.6271 21.4525 21.292 20.8672C19.1233 20.3235 16.9145 21.5988 16.3009 23.7488C15.6402 26.0637 12.3595 26.0637 11.6988 23.7488C11.0853 21.5988 8.87642 20.3235 6.7077 20.8672C4.37257 21.4525 2.7322 18.6113 4.40667 16.8817C5.96182 15.2753 5.96182 12.7248 4.40668 11.1184C2.7322 9.38879 4.37257 6.54759 6.7077 7.13292C8.87642 7.67654 11.0853 6.40127 11.6988 4.25129Z" fill="#7B7B7B"/>
</svg>
