<svg width="20" height="20" viewBox="0 0 20 20" fill="none" xmlns="http://www.w3.org/2000/svg">
<path d="M2.78217 6.93844L2.93861 7.92613H2.93861L2.78217 6.93844ZM6.93844 2.78217L7.92613 2.93861V2.93861L6.93844 2.78217ZM16.9389 18.0451L16.3511 17.2361L16.9389 18.0451ZM18.0451 16.9389L17.2361 16.3511L18.0451 16.9389ZM1.95491 16.9389L2.76393 16.3511L1.95491 16.9389ZM3.06107 18.0451L3.64886 17.2361L3.06107 18.0451ZM3.06107 1.95491L2.47329 1.1459L3.06107 1.95491ZM1.95491 3.06107L1.1459 2.47329L1.95491 3.06107ZM16.9389 1.95491L16.3511 2.76393L16.9389 1.95491ZM18.0451 3.06107L17.2361 3.64886L18.0451 3.06107ZM7 1.02893L6.96576 0.0295148L7 1.02893ZM1.02893 7L0.0295151 6.96576L1.02893 7ZM11 13C10.4477 13 10 13.4477 10 14C10 14.5523 10.4477 15 11 15V13ZM14 15C14.5523 15 15 14.5523 15 14C15 13.4477 14.5523 13 14 13V15ZM6 9C5.44772 9 5 9.44771 5 10C5 10.5523 5.44772 11 6 11V9ZM14 11C14.5523 11 15 10.5523 15 10C15 9.44771 14.5523 9 14 9V11ZM11 5C10.4477 5 10 5.44772 10 6C10 6.55228 10.4477 7 11 7V5ZM14 7C14.5523 7 15 6.55228 15 6C15 5.44772 14.5523 5 14 5V7ZM2.93861 7.92613C5.50596 7.5195 7.5195 5.50596 7.92613 2.93861L5.95075 2.62574C5.67967 4.33731 4.33731 5.67967 2.62574 5.95075L2.93861 7.92613ZM10 20C11.8526 20 13.3224 20.0014 14.4905 19.8748C15.6773 19.7462 16.6707 19.4761 17.5267 18.8541L16.3511 17.2361C15.8929 17.569 15.2917 17.7763 14.275 17.8865C13.2397 17.9986 11.8971 18 10 18V20ZM18 10C18 11.8971 17.9986 13.2397 17.8865 14.275C17.7763 15.2917 17.569 15.8929 17.2361 16.3511L18.8541 17.5267C19.4761 16.6707 19.7462 15.6773 19.8748 14.4905C20.0014 13.3224 20 11.8526 20 10H18ZM17.5267 18.8541C18.0361 18.484 18.484 18.0361 18.8541 17.5267L17.2361 16.3511C16.9894 16.6907 16.6907 16.9894 16.3511 17.2361L17.5267 18.8541ZM0 10C0 11.8526 -0.00137281 13.3224 0.125182 14.4905C0.253764 15.6773 0.523945 16.6707 1.1459 17.5267L2.76393 16.3511C2.43097 15.8929 2.22369 15.2917 2.11355 14.275C2.00137 13.2397 2 11.8971 2 10H0ZM10 18C8.10286 18 6.76033 17.9986 5.72497 17.8865C4.70833 17.7763 4.10714 17.569 3.64886 17.2361L2.47329 18.8541C3.32933 19.4761 4.32274 19.7462 5.50955 19.8748C6.67764 20.0014 8.14741 20 10 20V18ZM1.1459 17.5267C1.51597 18.0361 1.96392 18.484 2.47329 18.8541L3.64886 17.2361C3.30928 16.9894 3.01065 16.6907 2.76393 16.3511L1.1459 17.5267ZM2.47329 1.1459C1.96392 1.51597 1.51598 1.96392 1.1459 2.47329L2.76393 3.64886C3.01065 3.30928 3.30928 3.01065 3.64886 2.76393L2.47329 1.1459ZM10 2C11.8971 2 13.2397 2.00137 14.275 2.11355C15.2917 2.22369 15.8929 2.43097 16.3511 2.76393L17.5267 1.1459C16.6707 0.523946 15.6773 0.253765 14.4905 0.125182C13.3224 -0.00137258 11.8526 0 10 0V2ZM20 10C20 8.14741 20.0014 6.67764 19.8748 5.50955C19.7462 4.32274 19.4761 3.32933 18.8541 2.47329L17.2361 3.64886C17.569 4.10714 17.7763 4.70833 17.8865 5.72497C17.9986 6.76033 18 8.10286 18 10H20ZM16.3511 2.76393C16.6907 3.01065 16.9894 3.30928 17.2361 3.64886L18.8541 2.47329C18.484 1.96392 18.0361 1.51598 17.5267 1.1459L16.3511 2.76393ZM10 0C8.83661 0 7.83088 -0.000125289 6.96576 0.0295148L7.03424 2.02834C7.85782 2.00013 8.82554 2 10 2V0ZM6.96576 0.0295148C5.08923 0.0938073 3.6433 0.295834 2.47329 1.1459L3.64886 2.76393C4.28806 2.29953 5.1824 2.09179 7.03424 2.02834L6.96576 0.0295148ZM6 1.02892C5.99999 1.97534 5.99631 2.33812 5.95075 2.62574L7.92613 2.93861C8.00241 2.45701 7.99999 1.90205 8 1.02894L6 1.02892ZM2 10C2 8.82554 2.00013 7.85782 2.02834 7.03424L0.0295151 6.96576C-0.000124812 7.83088 0 8.83661 0 10H2ZM2.02834 7.03424C2.09179 5.1824 2.29953 4.28806 2.76393 3.64886L1.1459 2.47329C0.295833 3.6433 0.0938073 5.08923 0.0295151 6.96576L2.02834 7.03424ZM1.02894 8C1.90204 7.99999 2.45701 8.00241 2.93861 7.92613L2.62574 5.95075C2.33812 5.99631 1.97534 5.99999 1.02892 6L1.02894 8ZM11 15H14V13H11V15ZM6 11H14V9H6V11ZM11 7H14V5H11V7Z" fill="#164863"/>
</svg>
