<svg width="80" height="86" viewBox="0 0 80 86" fill="none" xmlns="http://www.w3.org/2000/svg">
<path d="M40.1205 41.4543C31.7483 41.4543 24.8984 34.6901 24.8984 26.4226V21.0317C24.8984 12.7642 31.7483 6 40.1205 6C48.4927 6 55.3425 12.7642 55.3425 21.0317V26.4226C55.3425 34.6901 48.4927 41.4543 40.1205 41.4543Z" fill="#427D9D"/>
<path d="M49.0822 43.5864L40.1204 53.8051L31.1586 43.5864C19.8404 45.4462 11.1392 55.2119 11.1392 66.8953V82.4443C11.1392 83.8677 12.3183 85.0312 13.7589 85.0312H66.4819C67.9234 85.0312 69.1016 83.8668 69.1016 82.4443V66.8944C69.1016 55.2119 60.3995 45.4462 49.0822 43.5864ZM59.8651 73.5058C59.8651 74.0915 59.384 74.5666 58.7909 74.5666H55.3433V77.9711C55.3433 78.5568 54.8622 79.0319 54.2691 79.0319H50.5512C49.9581 79.0319 49.477 78.5568 49.477 77.9711V74.5666H46.0294C45.4363 74.5666 44.9552 74.0915 44.9552 73.5058V69.8362C44.9552 69.2504 45.4363 68.7754 46.0294 68.7754H49.477V65.37C49.477 64.7843 49.9581 64.3092 50.5512 64.3092H54.2673C54.8604 64.3092 55.3415 64.7843 55.3415 65.37V68.7745H58.7891C59.3822 68.7745 59.8633 69.2496 59.8633 69.8353V73.5058H59.8651Z" fill="#427D9D"/>
<path d="M44.5569 64H60.7594V80H44.5569V64Z" fill="#427D9D"/>
<path d="M14.1772 20.5C14.1772 24.5 21.941 27.1667 25.3165 28H55.1899C71.8585 23.7008 66.0725 14.6895 53.6709 12.5C52.6583 8.5 50.1266 0.5 44.557 0C42.9367 0 41.519 1 41.0127 1.5C40.6751 1.83333 39.7975 2.3 38.9874 1.5C38.481 1 37.0633 0 35.4431 0C29.8734 0.5 27.3418 9 26.3291 12.5C25.3165 12.5 14.1772 15.5 14.1772 20.5Z" fill="#427D9D"/>
<path d="M23.7974 29C23.7974 29 24.8101 27.3779 24.8101 27C24.8101 24.9311 24.8101 21.6911 24.8101 20C24.8101 18 25.4852 16.4999 25.8227 15.9999C30.886 14.1666 41.7215 11.6 54.6835 16C54.8523 16.5 55.1898 18 55.1898 20C55.1898 21.8347 55.1898 25.4925 55.1898 27.5C55.1898 27.6809 56.2025 29.5 56.2025 29.5" stroke="white" stroke-width="1.5" stroke-miterlimit="1" stroke-linejoin="round"/>
</svg>
