<svg width="80" height="85" viewBox="0 0 80 85" fill="none" xmlns="http://www.w3.org/2000/svg">
<path d="M39.9551 40.8939C31.6875 40.8939 24.9233 34.1297 24.9233 25.8621V20.4713C24.9233 12.2038 31.6875 5.43958 39.9551 5.43958C48.2226 5.43958 54.9868 12.2038 54.9868 20.4713V25.8621C54.9868 34.1297 48.2226 40.8939 39.9551 40.8939Z" fill="#427D9D"/>
<path d="M48.8049 43.0259L39.9552 53.2447L31.1054 43.0259C19.9286 44.8858 11.3362 54.6514 11.3362 66.3349V81.8838C11.3362 83.3073 12.5006 84.4708 13.9231 84.4708H65.9872C67.4106 84.4708 68.5741 83.3064 68.5741 81.8838V66.334C68.5741 54.6514 59.9808 44.8858 48.8049 43.0259ZM59.453 72.9454C59.453 73.5311 58.978 74.0062 58.3923 74.0062H54.9878V77.4107C54.9878 77.9964 54.5127 78.4715 53.927 78.4715H50.2556C49.6698 78.4715 49.1948 77.9964 49.1948 77.4107V74.0062H45.7903C45.2046 74.0062 44.7295 73.5311 44.7295 72.9454V69.2757C44.7295 68.69 45.2046 68.215 45.7903 68.215H49.1948V64.8096C49.1948 64.2239 49.6698 63.7488 50.2556 63.7488H53.9252C54.511 63.7488 54.986 64.2239 54.986 64.8096V68.2141H58.3905C58.9762 68.2141 59.4513 68.6891 59.4513 69.2748V72.9454H59.453Z" fill="#427D9D"/>
</svg>
