<svg width="32" height="32" viewBox="0 0 32 32" fill="none" xmlns="http://www.w3.org/2000/svg">
<rect width="32" height="32" rx="6.73684" fill="#427D9D"/>
<path d="M25.2418 17.9732L26.0541 18.5564L25.2418 17.9732ZM25.2418 14.0266L24.4294 14.6098L25.2418 14.0266ZM26.172 15.9999H25.172H26.172ZM6.75895 17.9732L7.57129 17.39L6.75895 17.9732ZM6.75895 14.0266L5.9466 13.4435L6.75895 14.0266ZM5.82867 15.9999H4.82867H5.82867ZM5.94661 18.5564C6.86597 19.837 8.2383 21.526 9.92143 22.9042C11.5931 24.2729 13.6772 25.421 16.0003 25.421V23.421C14.3375 23.421 12.6943 22.5896 11.1885 21.3567C9.6941 20.1331 8.43874 18.5983 7.57129 17.39L5.94661 18.5564ZM16.0003 25.421C18.3235 25.421 20.4076 24.2729 22.0793 22.9042C23.7624 21.526 25.1347 19.837 26.0541 18.5564L24.4294 17.39C23.562 18.5983 22.3066 20.1331 20.8122 21.3567C19.3064 22.5896 17.6632 23.421 16.0003 23.421V25.421ZM26.0541 13.4435C25.1347 12.1628 23.7624 10.4738 22.0793 9.09567C20.4076 7.72692 18.3235 6.57886 16.0003 6.57886V8.57886C17.6632 8.57886 19.3064 9.41021 20.8122 10.6431C22.3066 11.8667 23.562 13.4015 24.4294 14.6098L26.0541 13.4435ZM16.0003 6.57886C13.6772 6.57886 11.5931 7.72692 9.92143 9.09567C8.2383 10.4738 6.86597 12.1628 5.9466 13.4435L7.57129 14.6098C8.43874 13.4015 9.6941 11.8667 11.1885 10.6431C12.6943 9.41021 14.3375 8.57886 16.0003 8.57886V6.57886ZM26.0541 18.5564C26.6279 17.7571 27.172 17.0574 27.172 15.9999H25.172C25.172 16.2973 25.096 16.4615 24.4294 17.39L26.0541 18.5564ZM24.4294 14.6098C25.096 15.5383 25.172 15.7025 25.172 15.9999H27.172C27.172 14.9424 26.6279 14.2427 26.0541 13.4435L24.4294 14.6098ZM7.57129 17.39C6.90472 16.4615 6.82867 16.2973 6.82867 15.9999H4.82867C4.82867 17.0574 5.37281 17.7571 5.94661 18.5564L7.57129 17.39ZM5.9466 13.4435C5.37281 14.2427 4.82867 14.9424 4.82867 15.9999H6.82867C6.82867 15.7025 6.90472 15.5383 7.57129 14.6098L5.9466 13.4435ZM11.8425 15.9999C11.8425 18.2963 13.704 20.1578 16.0003 20.1578V18.1578C14.8086 18.1578 13.8425 17.1917 13.8425 15.9999H11.8425ZM16.0003 20.1578C18.2967 20.1578 20.1582 18.2963 20.1582 15.9999H18.1582C18.1582 17.1917 17.1921 18.1578 16.0003 18.1578V20.1578ZM20.1582 15.9999C20.1582 13.7036 18.2967 11.842 16.0003 11.842V13.842C17.1921 13.842 18.1582 14.8081 18.1582 15.9999H20.1582ZM16.0003 11.842C13.704 11.842 11.8425 13.7036 11.8425 15.9999H13.8425C13.8425 14.8081 14.8086 13.842 16.0003 13.842V11.842Z" fill="white"/>
</svg>
